<svg version="1.1" xmlns="http://www.w3.org/2000/svg" width="2306px" height="639px" transform="rotate(0) scale(1, 1)">
<path d="M0 0 C7.19703262 7.37695843 9.02991457 19.46297348 11.875 29.1171875 C12.39745114 30.87370773 12.9204441 32.63006687 13.44393921 34.38627625 C14.55729084 38.12532601 15.66690905 41.86545539 16.77362061 45.60647583 C18.50814382 51.46886084 20.25267831 57.32823784 21.99853516 63.18725586 C27.05504094 80.16543555 32.08904245 97.15016912 37.090271 114.14471436 C38.70218959 119.62124319 40.32023718 125.09595513 41.94002914 130.57015991 C43.21883665 134.89454129 44.48806304 139.22158386 45.74994469 143.55093288 C46.34072086 145.57210295 46.93610344 147.59184549 47.53359985 149.61103821 C48.25074982 152.03482291 48.96064075 154.46077353 49.66146851 156.889328 C52.73684798 167.3481345 52.73684798 167.3481345 60.5 174.5625 C66.27595476 176.72848303 70.74832069 176.91894135 76.49609375 174.58984375 C84.35034176 170.56320198 85.8107543 162.78093762 88.34880829 154.94035149 C89.17110127 152.29703218 89.97176082 149.64813435 90.76464844 146.99584961 C91.06449646 146.00212845 91.36434448 145.00840729 91.67327881 143.98457336 C92.65490011 140.72886899 93.63213164 137.47186462 94.609375 134.21484375 C95.30164532 131.9162165 95.99421686 129.61767994 96.68707275 127.31922913 C98.50820614 121.27533991 100.32572699 115.23037066 102.14233398 109.18511963 C105.03351058 99.56639749 107.93057726 89.94944721 110.82691193 80.3322773 C112.14361611 75.95806966 113.45808216 71.58319069 114.77243423 67.20827579 C115.70927364 64.09828482 116.65329669 60.9905335 117.59753418 57.88278198 C118.93791008 53.46155932 120.23326805 49.02945346 121.50891113 44.58914185 C122.18582813 42.28147763 122.86286737 39.97384926 123.54003906 37.66625977 C123.83345058 36.61613425 124.12686211 35.56600874 124.42916489 34.48406124 C128.17843341 21.85747803 135.00043545 11.53812514 146.49609375 4.80859375 C159.65543389 -2.00929159 174.7632977 -4.27359349 189.1875 0.1875 C194.45406132 2.28966764 199.00207885 5.13508409 203.5 8.5625 C204.53125 9.305 205.5625 10.0475 206.625 10.8125 C218.12994046 21.81722566 221.49797519 37.16969447 225.94921875 51.94921875 C226.36365743 53.31623438 226.77841076 54.68315466 227.19345093 56.04998779 C228.07276544 58.94786601 228.95003506 61.84635201 229.82571411 64.74533081 C231.20452706 69.30895302 232.58999061 73.87054074 233.97631836 78.43188477 C237.94464188 91.49388814 241.90297584 104.55882015 245.82637691 117.63439465 C247.48128302 123.14952603 249.14203677 128.66287241 250.80704594 134.17496204 C251.77836374 137.39229075 252.74449928 140.61097709 253.70394897 143.83187866 C254.76376445 147.38937034 255.83561836 150.9430262 256.91015625 154.49609375 C257.21658051 155.53666931 257.52300476 156.57724487 257.8387146 157.64935303 C259.73745522 163.87296296 261.53951026 169.10952278 266.6875 173.375 C272.85020897 175.97703267 278.31079244 176.10304717 284.578125 173.83984375 C291.35838581 169.3334509 293.13799539 162.67185606 295.34594727 155.23925781 C295.68604859 154.13547413 296.02614992 153.03169044 296.37655735 151.89445877 C297.43221966 148.4546967 298.46746342 145.00926557 299.5 141.5625 C300.12456185 139.50705442 300.74985076 137.45182959 301.37594604 135.39685059 C303.26179536 129.1827953 305.11422653 122.95899502 306.96484375 116.734375 C307.64903512 114.44053464 308.33349488 112.14677432 309.01820374 109.85308838 C310.8004343 103.88104592 312.58002036 97.90821945 314.35870361 91.93511963 C316.14647461 85.93174921 317.93529176 79.92869086 319.72460938 73.92578125 C320.24799865 72.16979488 320.24799865 72.16979488 320.78196144 70.37833405 C323.46434465 61.3824735 326.15716719 52.38976719 328.85599327 43.3988266 C330.47971833 37.98529444 332.09040589 32.56835257 333.67904186 27.14442062 C334.30353501 25.01858789 334.93469975 22.89488989 335.56922913 20.77203369 C336.28479164 18.3767387 336.98915111 15.97804836 337.67869568 13.57513428 C339.90781831 6.20787319 342.04744857 2.86420095 348.5 -1.4375 C354.05398223 -2.12673878 358.97110145 -2.1617151 364.0625 0.25 C367.25636533 3.28007736 369.25788056 5.87109039 369.89165688 10.29855537 C369.82146368 17.40268269 368.81586586 23.52767979 366.69287109 30.29248047 C366.39349136 31.29323608 366.09411163 32.2939917 365.78565979 33.32507324 C364.79723064 36.61490377 363.78553624 39.89706932 362.7734375 43.1796875 C362.0656726 45.51813085 361.35937335 47.85701824 360.65444946 50.19631958 C358.79043869 56.36774164 356.90661171 62.53293906 355.01849365 68.69702148 C353.15407597 74.79571234 351.30819649 80.90000086 349.4609375 87.00390625 C346.56414652 96.56899288 343.65202329 106.12927256 340.72949219 115.68652344 C337.94421769 124.79534077 335.1917796 133.9133056 332.46582031 143.04003906 C331.519252 146.19650532 330.57185786 149.35272223 329.62407303 152.50882339 C329.03466523 154.47830175 328.4483999 156.44872383 327.86558151 158.4201622 C322.41364347 176.85620832 316.38793268 192.77230686 298.5 202.5625 C283.96417958 208.5899957 270.58461446 208.90274885 255.7265625 203.56640625 C245.1120767 198.7279419 235.96393435 189.99414107 231.50378418 179.1375885 C229.03301333 172.22725797 226.79145248 165.26687901 224.65625 158.24609375 C224.29414429 157.06342422 223.93203857 155.8807547 223.55895996 154.6622467 C222.77752814 152.10808055 221.99718683 149.55361261 221.21875 146.99853516 C220.19290709 143.63144232 219.16389127 140.26532957 218.1338501 136.89951897 C213.58937358 122.04837154 209.07863686 107.1872482 204.60221863 92.31544685 C203.91131367 90.02072436 203.2197549 87.7262 202.5279541 85.43174744 C202.07397393 83.92593404 201.61999444 82.42012044 201.16601562 80.91430664 C200.94370522 80.17700664 200.72139481 79.43970663 200.49234772 78.6800642 C199.17214272 74.29950907 197.85734839 69.9173733 196.54647064 65.53401852 C195.7275878 62.79962056 194.90428158 60.06656837 194.07987976 57.33382988 C193.51742633 55.46417693 192.9605878 53.59283769 192.40393066 51.72145081 C192.06438354 50.59843063 191.72483643 49.47541046 191.375 48.31835938 C191.08367187 47.34620483 190.79234375 46.37405029 190.4921875 45.37243652 C188.41184927 39.48078966 186.02614494 34.78909443 180.5 31.5625 C174.82264513 29.21030024 170.39316248 29.37687952 164.640625 31.34765625 C157.41885788 35.44614088 155.90886624 41.16913068 153.6628418 48.78808594 C153.15311467 50.44882959 153.15311467 50.44882959 152.63309002 52.14312363 C151.57296553 55.61169738 150.53521763 59.08642153 149.5 62.5625 C148.86647648 64.6559265 148.23203568 66.74907567 147.59658813 68.84191895 C146.00701453 74.09756827 144.43993906 79.35964152 142.88071632 84.62436676 C141.86082266 88.06690461 140.83709241 91.50828244 139.81242371 94.94940186 C136.90617832 104.71127443 134.00554379 114.47480694 131.10961914 124.23974609 C129.32171956 130.26750875 127.52874284 136.2937425 125.73270226 142.31908417 C125.05663348 144.59086395 124.38248605 146.86321652 123.71039772 149.13617706 C111.35644822 190.91250908 111.35644822 190.91250908 94.5 201.5625 C81.34604478 208.07451981 66.19093007 210.37327368 51.875 206 C46.13186362 203.69465652 41.26955686 200.47660335 36.5 196.5625 C35.78972656 195.98886719 35.07945313 195.41523438 34.34765625 194.82421875 C24.44629004 185.94909779 20.44424431 172.42247674 16.92578125 160.01953125 C16.52068295 158.62991886 16.11432811 157.24067226 15.70683289 155.85176086 C14.84289441 152.89822249 13.98706563 149.9425107 13.13793945 146.98468018 C11.79336415 142.3014885 10.43058554 137.62371949 9.06445312 132.94677734 C7.6434 128.07942527 6.22315006 123.21185396 4.80886841 118.3425293 C0.00808997 101.81894415 -4.91505018 85.33256557 -9.85257339 68.84942245 C-10.90750153 65.32674852 -11.96102891 61.80365608 -13.0144043 58.28051758 C-13.31423737 57.27784772 -13.31423737 57.27784772 -13.62012768 56.25492191 C-14.9332844 51.86280034 -16.2435668 47.46982715 -17.55322266 43.07666016 C-18.73944746 39.09881894 -19.93525784 35.12425301 -21.14599609 31.15380859 C-21.38374756 30.36666473 -21.62149902 29.57952087 -21.86645508 28.76852417 C-22.46087158 26.80085865 -23.06091648 24.83489558 -23.66162109 22.86914062 C-25.14343753 17.0247254 -26.03323531 10.99115218 -23.5078125 5.34375 C-18.09592267 -2.85812031 -8.66530584 -3.5589649 0 0 Z " fill="#ffffff" transform="translate(1033.5,216.4375)"/>
<path d="M0 0 C2.25672315 1.44117469 4.37941177 2.92965888 6.4921875 4.57421875 C7.41563965 5.27571045 8.3390918 5.97720215 9.29052734 6.69995117 C12.90726335 9.73179332 15.30309843 13.28437206 17.8515625 17.22265625 C18.34894424 17.974366 18.84632599 18.72607574 19.35877991 19.50056458 C20.99523836 21.97786443 22.61856752 24.46348972 24.2421875 26.94921875 C25.40095872 28.70808295 26.56072615 30.46629119 27.72143555 32.22387695 C30.12911761 35.87121777 32.5325 39.52133796 34.93310547 43.17333984 C38.2562814 48.22325633 41.60446034 53.25603424 44.96484375 58.28125 C45.48810745 59.06381668 46.01137115 59.84638336 46.55049133 60.65266418 C47.60584571 62.23071944 48.66127063 63.80872752 49.71676636 65.38668823 C58.9811843 79.24334317 68.1720139 93.14739412 77.32992554 107.07461548 C86.50697152 121.02603277 95.68928588 134.97479048 104.99526978 148.84066772 C105.98156361 150.31231681 106.96517383 151.78576853 107.94589233 153.26113892 C109.28696143 155.27704077 110.6380509 157.28582971 111.9921875 159.29296875 C112.3773201 159.87620407 112.7624527 160.45943939 113.15925598 161.06034851 C116.60162049 166.11775188 120.21108368 169.74180778 126.3046875 171.01171875 C131.42847558 171.86568343 135.0310758 171.21304598 139.4921875 168.57421875 C144.51214396 164.78136276 146.18371354 160.54945492 147.4921875 154.57421875 C147.91039131 149.64566914 147.88977803 144.72861352 147.86108398 139.78637695 C147.86355585 138.30711591 147.86739816 136.82785662 147.87249756 135.34860229 C147.88079594 132.17949367 147.88006211 129.010565 147.87231255 125.84145546 C147.86067667 120.82766613 147.87293473 115.81410577 147.88893127 110.80033875 C147.92502917 98.35339712 147.93135314 85.90646191 147.92883301 73.45947266 C147.92712133 63.77179901 147.93424021 54.0843138 147.96881157 44.39669293 C147.98558895 39.41475623 147.98382655 34.43327984 147.96798885 29.45134509 C147.96218849 26.35242512 147.97293713 23.25372319 147.98823547 20.15484238 C147.99195834 18.72056749 147.98886326 17.28625584 147.97836494 15.85201454 C147.88642497 2.39305276 147.88642497 2.39305276 152.4921875 -2.42578125 C157.71478607 -6.48208523 163.14558892 -6.19975669 169.4921875 -5.42578125 C174.09841607 -3.24388351 176.25549201 -0.94263965 178.4921875 3.57421875 C178.87250423 6.67312813 178.87250423 6.67312813 178.87986755 10.21365356 C178.88794586 11.19459781 178.88794586 11.19459781 178.89618737 12.19535911 C178.91045585 14.37929342 178.9033662 16.56262061 178.89624023 18.74658203 C178.90194469 20.31566351 178.90890925 21.88474085 178.91703796 23.45381165 C178.93498371 27.71244261 178.93379744 31.97086766 178.92809558 36.22952509 C178.92500341 39.79022955 178.93109703 43.35089448 178.93713433 46.91159332 C178.95118481 55.31902536 178.94961608 63.72635583 178.93823242 72.13378906 C178.92677174 80.78897501 178.94079105 89.44385035 178.9676289 98.09899533 C178.9898391 105.54211607 178.9964107 112.9851397 178.99055248 120.4282912 C178.98719184 124.86809333 178.98953732 129.30769677 179.00680351 133.74747086 C179.02235377 137.92876146 179.01822833 142.10959566 178.99949837 146.29086876 C178.99583361 147.81818115 178.99885872 149.34552794 179.00938416 150.87280846 C179.10304778 165.59845063 175.55848486 177.76075963 165.42578125 188.83203125 C153.33966873 200.20465234 140.77879922 203.19246594 124.68359375 202.88671875 C114.49913394 202.4470227 106.46207327 198.77788442 98.4921875 192.57421875 C97.10918457 191.52524414 97.10918457 191.52524414 95.69824219 190.45507812 C92.04886714 187.39596685 89.63445021 183.79328479 87.0625 179.8203125 C86.55964981 179.06040009 86.05679962 178.30048767 85.53871155 177.51754761 C83.88953218 175.02120012 82.25348087 172.51652748 80.6171875 170.01171875 C79.45319681 168.24504935 78.28822345 166.47902705 77.12231445 164.71362305 C74.72983162 161.08929619 72.34168039 157.46217236 69.95654297 153.83300781 C66.81235972 149.05377962 63.64543519 144.290215 60.46484375 139.53515625 C59.98557938 138.81858856 59.506315 138.10202087 59.01252747 137.36373901 C58.05016317 135.92516232 57.08772551 134.48663469 56.12521362 133.04815674 C47.9477156 120.82066767 39.83474748 108.5515583 31.75317383 96.26049805 C21.59646028 80.81353279 11.42894304 65.37302295 1.13058472 50.01998901 C0.04898748 48.40539987 -1.02990782 46.78899704 -2.10592651 45.17068481 C-3.58634912 42.94574642 -5.07683955 40.72791082 -6.5703125 38.51171875 C-7.21366295 37.53838844 -7.21366295 37.53838844 -7.87001038 36.5453949 C-11.23375127 31.5933212 -14.78252029 27.56414967 -20.7578125 26.13671875 C-25.91114448 25.17476345 -29.89075574 26.19382956 -34.5078125 28.57421875 C-39.55137576 32.30206985 -41.20042395 36.62517476 -42.5078125 42.57421875 C-42.92638744 47.50273039 -42.90540298 52.4198334 -42.87670898 57.36206055 C-42.87918085 58.84132159 -42.88302316 60.32058088 -42.88812256 61.79983521 C-42.89642094 64.96894383 -42.89568711 68.1378725 -42.88793755 71.30698204 C-42.87630167 76.32077137 -42.88855973 81.33433173 -42.90455627 86.34809875 C-42.94065417 98.79504038 -42.94697814 111.24197559 -42.94445801 123.68896484 C-42.94274633 133.37663849 -42.94986521 143.0641237 -42.98443657 152.75174457 C-43.00121395 157.73368127 -42.99945155 162.71515766 -42.98361385 167.69709241 C-42.97781349 170.79601238 -42.98856213 173.89471431 -43.00386047 176.99359512 C-43.00758334 178.42787001 -43.00448826 179.86218166 -42.99398994 181.29642296 C-42.90204997 194.75538474 -42.90204997 194.75538474 -47.5078125 199.57421875 C-52.73041107 203.63052273 -58.16121392 203.34819419 -64.5078125 202.57421875 C-69.11404107 200.39232101 -71.27111701 198.09107715 -73.5078125 193.57421875 C-73.88812923 190.47530937 -73.88812923 190.47530937 -73.89549255 186.93478394 C-73.90087809 186.28082111 -73.90626363 185.62685827 -73.91181237 184.95307839 C-73.92608085 182.76914408 -73.9189912 180.58581689 -73.91186523 178.40185547 C-73.91756969 176.83277399 -73.92453425 175.26369665 -73.93266296 173.69462585 C-73.95060871 169.43599489 -73.94942244 165.17756984 -73.94372058 160.91891241 C-73.94062841 157.35820795 -73.94672203 153.79754302 -73.95275933 150.23684418 C-73.96680981 141.82941214 -73.96524108 133.42208167 -73.95385742 125.01464844 C-73.94239674 116.35946249 -73.95641605 107.70458715 -73.9832539 99.04944217 C-74.0054641 91.60632143 -74.0120357 84.1632978 -74.00617748 76.7201463 C-74.00281684 72.28034417 -74.00516232 67.84074073 -74.02242851 63.40096664 C-74.03797877 59.21967604 -74.03385333 55.03884184 -74.01512337 50.85756874 C-74.01145861 49.33025635 -74.01448372 47.80290956 -74.02500916 46.27562904 C-74.11867278 31.54998687 -70.57410986 19.38767787 -60.44140625 8.31640625 C-44.37409874 -6.802384 -19.56355024 -11.12257919 0 0 Z " fill="#000000" transform="translate(237.5078125,217.42578125)"/>
<path d="M0 0 C1.09103027 0.32145996 1.09103027 0.32145996 2.20410156 0.64941406 C22.2267274 6.72786919 38.77424444 16.64216211 54 31 C54.75023437 31.67417969 55.50046875 32.34835938 56.2734375 33.04296875 C71.37616886 47.16534738 82.90355973 69.13482917 84.17700195 89.8840332 C84.71840875 117.86246975 84.71840875 117.86246975 80 131 C79.62617187 132.05703125 79.25234375 133.1140625 78.8671875 134.203125 C68.18577204 161.79088679 45.77184655 183.15107096 19.06201172 195.109375 C12.82087474 197.8050496 6.52128999 200.07857428 0 202 C-0.70415039 202.21172852 -1.40830078 202.42345703 -2.13378906 202.64160156 C-24.48785669 209.0328189 -52.77580192 208.68251631 -75 202 C-75.72735352 201.78569336 -76.45470703 201.57138672 -77.20410156 201.35058594 C-97.2267274 195.27213081 -113.77424444 185.35783789 -129 171 C-129.75023437 170.32582031 -130.50046875 169.65164063 -131.2734375 168.95703125 C-146.37616886 154.83465262 -157.90355973 132.86517083 -159.17700195 112.1159668 C-159.71840875 84.13753025 -159.71840875 84.13753025 -155 71 C-154.62617187 69.94296875 -154.25234375 68.8859375 -153.8671875 67.796875 C-143.18577204 40.20911321 -120.77184655 18.84892904 -94.06201172 6.890625 C-87.82087474 4.1949504 -81.52128999 1.92142572 -75 0 C-73.94377441 -0.31759277 -73.94377441 -0.31759277 -72.86621094 -0.64160156 C-50.51214331 -7.0328189 -22.22419808 -6.68251631 0 0 Z M-113.63818359 59.38378906 C-123.60485734 71.21229035 -129.74205336 87.09542945 -129.25390625 102.68359375 C-126.88624423 124.28395647 -117.53398628 140.98235623 -101 155 C-78.85929999 172.2823764 -50.27992934 178.30298839 -22.78344727 175.05029297 C1.61608972 171.74897653 24.07500144 159.8998728 40 141 C49.27333049 128.80343546 55.70608963 112.56478695 54 97 C50.72308503 75.73593133 41.35631182 58.98668339 24.27099609 45.65039062 C-17.81555339 14.96847549 -78.80841485 20.78384854 -113.63818359 59.38378906 Z " fill="#000000" transform="translate(873,216)"/>
<path d="M0 0 C1.50566528 0.00858032 1.50566528 0.00858032 3.04174805 0.01733398 C16.1853897 0.33040332 26.53346193 4.1189196 36.8125 12.5 C37.44542969 12.97179687 38.07835937 13.44359375 38.73046875 13.9296875 C53.84766695 25.74312715 58.74120591 47.53530345 64.83996582 64.8001709 C66.15310208 68.5170438 67.47146888 72.23203633 68.79199219 75.94628906 C69.01501574 76.57361624 69.23803928 77.20094341 69.46782112 77.8472805 C69.91992526 79.11890777 70.37205402 80.39052628 70.82420731 81.66213608 C71.5047339 83.57654704 72.18471718 85.49115026 72.86459351 87.40579224 C76.71464556 98.24493882 80.60776872 109.06815662 84.52502441 119.88317871 C85.55909925 122.74060283 86.58991238 125.5991864 87.62011719 128.45800781 C90.78324374 137.22335387 93.97763764 145.97447378 97.26461792 154.69424438 C98.78239163 158.72420902 100.28646279 162.75923071 101.78991699 166.79455566 C102.50230597 168.6938589 103.2217347 170.59053952 103.94885254 172.48425293 C111.49352493 192.13687192 111.49352493 192.13687192 109.8125 201.5 C107.62606301 206.11581142 105.31650196 208.22864085 100.8125 210.5 C95.35964185 211.31462618 90.39494702 211.17819158 85.3125 209 C79.25684209 202.94434209 76.96336249 193.76696607 74.1640625 185.86328125 C73.7147367 184.60643424 73.26494041 183.34975535 72.81471252 182.0932312 C71.8527335 179.40564264 70.89381824 176.71698902 69.93734741 174.0274353 C68.41952719 169.75968582 66.89462073 165.49449064 65.3684082 161.22973633 C63.78176568 156.79523099 62.19547102 152.36060371 60.61146545 147.92515564 C55.56426808 133.79278865 50.48565786 119.67183964 45.39447021 105.55526733 C44.04407261 101.81062183 42.69612448 98.06509657 41.34814453 94.31958008 C39.26677378 88.53995299 37.1756457 82.76393567 35.07806396 76.99017334 C33.97447275 73.94668859 32.87685893 70.90111478 31.78103542 67.85482693 C30.66936503 64.77185967 29.54670353 61.69289429 28.42578125 58.61328125 C27.81950142 56.91983833 27.81950142 56.91983833 27.20097351 55.19218445 C23.68868404 45.60077543 19.62533401 38.36674363 10.5 33.1875 C2.47820179 31.13541209 -4.59148351 30.82294743 -12.1875 34.5 C-25.03518129 42.68323649 -28.14430778 59.69167278 -32.99938965 73.28601074 C-34.15591672 76.52406079 -35.31624169 79.76072821 -36.47753906 82.99707031 C-38.15978047 87.6856456 -39.84078519 92.37466153 -41.52099609 97.06396484 C-44.26455336 104.71796618 -47.01541593 112.36932394 -49.76953125 120.01953125 C-50.11990448 120.99280019 -50.11990448 120.99280019 -50.47735596 121.98573112 C-54.42858221 132.95995182 -58.39149549 143.92993166 -62.35986328 154.89796448 C-64.75544072 161.52262289 -67.13778543 168.1517081 -69.5015564 174.78778076 C-70.78376552 178.38113368 -72.0766908 181.97055722 -73.37268066 185.55895996 C-73.9490758 187.16271307 -74.52060218 188.76822598 -75.08679199 190.37561035 C-75.84847275 192.53650456 -76.62702464 194.69055537 -77.41015625 196.84375 C-77.83047119 198.02130859 -78.25078613 199.19886719 -78.68383789 200.41210938 C-80.92509148 205.01470321 -83.97257894 207.69005263 -88.1875 210.5 C-93.74148223 211.18923878 -98.65860145 211.2242151 -103.75 208.8125 C-107.54730672 205.20992696 -109.64215783 201.84184383 -109.8515625 196.55859375 C-109.55882564 186.41295057 -105.10219901 176.93487408 -101.5625 167.5625 C-100.75198858 165.37235082 -99.94360971 163.18141143 -99.13720703 160.98974609 C-97.40768907 156.29352203 -95.66929121 151.60071411 -93.92578125 146.90966797 C-91.12455001 139.3528377 -88.38238177 131.77556498 -85.65625 124.19140625 C-85.42608814 123.55113684 -85.19592628 122.91086742 -84.95878983 122.25119591 C-84.02632807 119.6567344 -83.09411587 117.06218351 -82.16236305 114.46746731 C-80.53267696 109.92998656 -78.89772801 105.39443036 -77.25927734 100.86010742 C-77.02951139 100.2242336 -76.79974545 99.58835978 -76.56301689 98.93321705 C-76.10175082 97.65679192 -75.64046437 96.38037415 -75.17915726 95.10396385 C-71.96622846 86.2138201 -68.76165862 77.32084445 -65.58303833 68.41836548 C-64.12721709 64.34416689 -62.66463705 60.27241536 -61.20074463 56.20111084 C-60.53681039 54.34928584 -59.87600788 52.49633435 -59.21868896 50.64215088 C-52.197855 30.84406893 -44.44481628 15.53868713 -25.1875 5.25 C-16.91018607 1.45957776 -9.08563924 -0.06060673 0 0 Z " fill="#ffffff" transform="translate(1559.1875,211.5)"/>
<path d="M0 0 C5.75110467 2.46475915 7.69055264 6.4528987 10 12 C11.77918628 17.16910553 13.3409682 22.3989883 14.90234375 27.63671875 C15.37698501 29.20936217 15.85228782 30.78180605 16.32820129 32.35406494 C17.34340725 35.7126718 18.35416959 39.07257108 19.3614502 42.43356323 C20.94753693 47.72512726 22.54467234 53.01331587 24.14355469 58.30102539 C27.43706423 69.19826914 30.71906637 80.0989646 34 91 C37.22499602 101.71456917 40.45219767 112.4284456 43.69445324 123.13780689 C45.05286327 127.62608868 46.40435025 132.11637553 47.75035381 136.60839272 C48.58576025 139.39114596 49.42717059 142.17205728 50.27020836 144.95250702 C50.83768893 146.83057408 51.39797008 148.71081193 51.95796204 150.59112549 C55.17835676 161.17155259 58.28487387 169.84570131 68.4375 175.3125 C75.32216598 177.15960551 81.27507556 177.58199542 88 175 C95.28106839 170.7215669 99.82389588 165.5475146 102.35546875 157.42578125 C102.57013794 156.74661652 102.78480713 156.06745178 103.00598145 155.3677063 C103.74437711 153.01932522 104.46587982 150.66608617 105.1875 148.3125 C105.72759438 146.57994828 106.2683981 144.84761758 106.80981445 143.11547852 C108.89559083 136.41717088 110.9486419 129.7089117 113 123 C113.22451843 122.26600479 113.44903687 121.53200958 113.68035889 120.77577209 C119.02884809 103.28980763 124.36469072 85.80000542 129.67719936 68.30307484 C131.71228561 61.60217009 133.75436331 54.90341873 135.80125523 48.20611095 C137.26016969 43.4310796 138.71032763 38.65350369 140.15415096 33.87388897 C141.05635309 30.89483526 141.96684502 27.91836384 142.87967873 24.94255257 C143.29991836 23.56667542 143.71677473 22.18975948 144.12991905 20.81173515 C144.69566335 18.92647525 145.27490675 17.04528223 145.85473633 15.16430664 C146.17436844 14.11247696 146.49400055 13.06064728 146.82331848 11.97694397 C148.96979629 6.54646506 151.56056927 2.39140397 157 0 C162.54808604 -0.82885269 167.47140883 -0.7240695 172.5625 1.6875 C175.65277801 4.61930222 177.67501986 7.26028017 178.46820068 11.50642395 C178.57535683 20.98767378 175.88602376 29.35200129 173.015625 38.26171875 C172.48539396 39.95125569 171.95673663 41.64128719 171.42953491 43.33177185 C170.01484105 47.85403355 168.57990287 52.36962794 167.14105988 56.88425446 C165.647318 61.58351808 164.17252125 66.28871189 162.69677734 70.99365234 C160.89632992 76.7304752 159.09448462 82.46683411 157.28439331 88.20062256 C153.45471033 100.33459821 149.67848694 112.48355501 145.9609375 124.65234375 C145.72940979 125.40956663 145.49788208 126.16678951 145.25933838 126.94695854 C143.29144963 133.38313357 141.3262157 139.82011425 139.36682129 146.25888062 C138.56924091 148.87913562 137.76939369 151.49867735 136.96694946 154.1174469 C136.25394485 156.44452938 135.54413523 158.77259474 134.83847046 161.10191345 C129.49570256 178.49759316 122.27281839 192.30760331 105.98046875 201.75 C91.54494571 209.3036825 74.47061452 210.82463225 58.8125 205.9375 C44.84589158 200.47096638 34.83654004 192.338131 28 179 C24.3685864 170.42947451 21.53117802 161.63053912 18.875 152.71875 C18.29124166 150.78349117 17.70748219 148.84823268 17.12368107 146.91298676 C16.50489834 144.858398 15.88853594 142.8030979 15.2729187 140.74755859 C13.97991352 136.43048044 12.68018993 132.11544393 11.37915039 127.80078125 C10.92963098 126.30981769 10.48012241 124.81885087 10.03062439 123.32788086 C9.80533491 122.58061737 9.58004543 121.83335388 9.347929 121.06344604 C8.65511907 118.76453541 7.96297778 116.46542442 7.27101135 114.16625977 C2.26150031 97.52483731 -2.80266374 80.90011516 -7.86895752 64.27590942 C-9.64915794 58.43405399 -11.42836209 52.59189511 -13.20738029 46.74967957 C-13.79441959 44.82219115 -14.38176949 42.89479734 -14.96913147 40.96740723 C-15.66568877 38.68055375 -16.36127729 36.39340485 -17.05567932 34.105896 C-17.67008154 32.08511066 -18.28800942 30.06539278 -18.91001892 28.04693604 C-19.18205643 27.15778503 -19.45409393 26.26863403 -19.734375 25.35253906 C-19.97003174 24.58782288 -20.20568848 23.82310669 -20.44848633 23.03521729 C-22.0731439 17.03984247 -21.96327261 11.0335755 -19.3125 5.4375 C-13.57702215 -0.60800368 -7.99043488 -0.94323994 0 0 Z " fill="#ffffff" transform="translate(1742,215)"/>
<path d="M0 0 C1.43548187 -0.01007584 1.43548187 -0.01007584 2.89996338 -0.02035522 C6.04721334 -0.03927458 9.19424954 -0.04325576 12.34155273 -0.04541016 C14.53677965 -0.05184012 16.73200571 -0.05856863 18.92723083 -0.06558228 C23.52100615 -0.07753828 28.11470633 -0.0812646 32.70849609 -0.08007812 C38.59204637 -0.07987453 44.47511581 -0.10722589 50.35855198 -0.14162254 C54.88903516 -0.16386213 59.41940183 -0.16791663 63.94993401 -0.16685867 C66.11924847 -0.16921716 68.28856602 -0.17805459 70.45782661 -0.19352341 C73.49045714 -0.21313211 76.5220399 -0.2073661 79.5546875 -0.1953125 C80.44784164 -0.20655151 81.34099579 -0.21779053 82.26121521 -0.22937012 C87.73779704 -0.17409267 90.86057123 0.6485111 95.21264648 4.29052734 C98.3278239 8.08892905 99.55049119 12.02913924 99.21264648 16.91552734 C98.3278524 22.04733302 96.25758261 25.69177749 92.1149292 28.93054199 C88.24925345 30.74196524 84.70855414 30.70706084 80.52612305 30.67529297 C79.6620282 30.68066574 78.79793335 30.68603851 77.90765381 30.6915741 C76.03560875 30.70133947 74.16351849 30.7043 72.2914505 30.70121765 C69.32272353 30.69673118 66.35459006 30.71076511 63.38592529 30.72961426 C57.07817537 30.7663768 50.77048774 30.78009502 44.46264648 30.79052734 C37.16436802 30.80262717 29.86637866 30.82430714 22.56822968 30.87052917 C19.65403203 30.88404197 16.74020515 30.87993815 13.82598877 30.87512207 C12.02290384 30.88447009 10.21982292 30.89464076 8.41674805 30.90576172 C7.61539429 30.89961349 6.81404053 30.89346527 5.98840332 30.88713074 C-0.21554387 30.9538773 -6.79433829 31.76213895 -11.67913437 35.88863373 C-18.21993443 42.61424483 -18.082475 51.30947511 -18.04614258 60.16943359 C-18.04964722 61.23064423 -18.05315186 62.29185486 -18.0567627 63.38522339 C-18.06552694 66.87455896 -18.05974954 70.3636899 -18.05297852 73.85302734 C-18.05432669 76.28865599 -18.05626849 78.72428438 -18.05877686 81.15991211 C-18.06172093 86.2571876 -18.05745345 91.35439285 -18.0480957 96.45166016 C-18.03670169 102.97493582 -18.04326498 109.49804689 -18.05524063 116.02131653 C-18.06247851 121.04855584 -18.06016242 126.07575633 -18.05498505 131.10299683 C-18.05365389 133.50788391 -18.0552775 135.91277455 -18.05994415 138.31765747 C-18.06504101 141.68240656 -18.05725457 145.04689159 -18.04614258 148.41162109 C-18.05019104 149.39887177 -18.0542395 150.38612244 -18.05841064 151.40328979 C-18.00992929 159.35501142 -17.47418044 166.74978912 -11.67345905 172.69235897 C-5.68984991 177.76249672 2.41739234 177.72001594 9.86962891 177.65942383 C11.40796135 177.66507355 11.40796135 177.66507355 12.97737122 177.6708374 C15.18876929 177.67723973 17.40019492 177.67696837 19.61159325 177.67065239 C23.11326262 177.66150313 26.61440107 177.67180865 30.11604309 177.68727112 C40.06612387 177.72727522 50.01616073 177.72856847 59.96630859 177.72631836 C66.06517409 177.72626728 72.16375067 177.74541723 78.262537 177.77565193 C81.70932786 177.78647574 85.15556757 177.77435051 88.6023407 177.76182556 C90.71618191 177.77072868 92.83001862 177.78080261 94.94384766 177.79223633 C95.89931488 177.78249283 96.8547821 177.77274933 97.83920288 177.76271057 C103.46656923 177.82346202 106.77072766 178.48811989 111.21264648 182.29052734 C115.26895047 187.51312592 114.98662192 192.94392877 114.21264648 199.29052734 C112.04236287 203.8722372 109.80118489 206.21747927 105.21264648 208.29052734 C101.5692664 208.7406678 97.94610682 208.71047684 94.27880859 208.69458008 C93.17569336 208.70144333 92.07257813 208.70830658 90.93603516 208.71537781 C87.28722267 208.73368514 83.63883884 208.72980048 79.98999023 208.72412109 C77.44755412 208.72868294 74.90511924 208.73398852 72.36268616 208.74000549 C67.0288434 208.74894583 61.69515627 208.7467396 56.36132812 208.73657227 C50.22251865 208.72512798 44.08414794 208.73910472 37.94539636 208.76596874 C32.01604148 208.79093244 26.08682098 208.79327935 20.15741158 208.78685188 C17.64697098 208.78669911 15.13652178 208.79270688 12.62611198 208.80514336 C9.10116607 208.82013751 5.57716393 208.80931127 2.05224609 208.79223633 C0.5157415 208.80673828 0.5157415 208.80673828 -1.05180359 208.8215332 C-13.91343539 208.69205903 -25.55750311 203.91893438 -35.04125977 195.22412109 C-45.6625546 183.95788995 -49.08935272 172.63833222 -49.07788086 157.55322266 C-49.08459808 156.28239838 -49.09131531 155.0115741 -49.09823608 153.70223999 C-49.11583092 150.23093278 -49.12058875 146.75972431 -49.12186766 143.28837681 C-49.12329376 141.1144694 -49.12757206 138.94058673 -49.13286209 136.76668549 C-49.15134231 129.16784586 -49.15953541 121.56907619 -49.15795898 113.97021484 C-49.15675881 106.91116104 -49.17784175 99.85241359 -49.20944631 92.79343724 C-49.23568836 86.71332986 -49.24632294 80.63332203 -49.24504817 74.55315852 C-49.24454076 70.93048356 -49.25009971 67.30808099 -49.27140427 63.68546295 C-49.294556 59.63856937 -49.28521761 55.59235222 -49.27319336 51.54541016 C-49.28443237 50.36165802 -49.29567139 49.17790588 -49.30725098 47.95828247 C-49.2092233 34.921307 -44.49151134 23.74245662 -35.75610352 14.03271484 C-25.68120388 4.43235758 -13.69001815 -0.01392418 0 0 Z " fill="#000000" transform="translate(545.787353515625,214.70947265625)"/>
<path d="M0 0 C1.43548187 -0.01007584 1.43548187 -0.01007584 2.89996338 -0.02035522 C6.04721334 -0.03927458 9.19424954 -0.04325576 12.34155273 -0.04541016 C14.53677965 -0.05184012 16.73200571 -0.05856863 18.92723083 -0.06558228 C23.52100615 -0.07753828 28.11470633 -0.0812646 32.70849609 -0.08007812 C38.59204637 -0.07987453 44.47511581 -0.10722589 50.35855198 -0.14162254 C54.88903516 -0.16386213 59.41940183 -0.16791663 63.94993401 -0.16685867 C66.11924847 -0.16921716 68.28856602 -0.17805459 70.45782661 -0.19352341 C73.49045714 -0.21313211 76.5220399 -0.2073661 79.5546875 -0.1953125 C80.44784164 -0.20655151 81.34099579 -0.21779053 82.26121521 -0.22937012 C87.73779704 -0.17409267 90.86057123 0.6485111 95.21264648 4.29052734 C98.3278239 8.08892905 99.55049119 12.02913924 99.21264648 16.91552734 C98.3278524 22.04733302 96.25758261 25.69177749 92.1149292 28.93054199 C88.24925345 30.74196524 84.70855414 30.70706084 80.52612305 30.67529297 C79.6620282 30.68066574 78.79793335 30.68603851 77.90765381 30.6915741 C76.03560875 30.70133947 74.16351849 30.7043 72.2914505 30.70121765 C69.32272353 30.69673118 66.35459006 30.71076511 63.38592529 30.72961426 C57.07817537 30.7663768 50.77048774 30.78009502 44.46264648 30.79052734 C37.16436802 30.80262717 29.86637866 30.82430714 22.56822968 30.87052917 C19.65403203 30.88404197 16.74020515 30.87993815 13.82598877 30.87512207 C12.02290384 30.88447009 10.21982292 30.89464076 8.41674805 30.90576172 C7.61539429 30.89961349 6.81404053 30.89346527 5.98840332 30.88713074 C-0.21554387 30.9538773 -6.79433829 31.76213895 -11.67913437 35.88863373 C-18.21993443 42.61424483 -18.082475 51.30947511 -18.04614258 60.16943359 C-18.04964722 61.23064423 -18.05315186 62.29185486 -18.0567627 63.38522339 C-18.06552694 66.87455896 -18.05974954 70.3636899 -18.05297852 73.85302734 C-18.05432669 76.28865599 -18.05626849 78.72428438 -18.05877686 81.15991211 C-18.06172093 86.2571876 -18.05745345 91.35439285 -18.0480957 96.45166016 C-18.03670169 102.97493582 -18.04326498 109.49804689 -18.05524063 116.02131653 C-18.06247851 121.04855584 -18.06016242 126.07575633 -18.05498505 131.10299683 C-18.05365389 133.50788391 -18.0552775 135.91277455 -18.05994415 138.31765747 C-18.06504101 141.68240656 -18.05725457 145.04689159 -18.04614258 148.41162109 C-18.05019104 149.39887177 -18.0542395 150.38612244 -18.05841064 151.40328979 C-18.00992929 159.35501142 -17.47418044 166.74978912 -11.67345905 172.69235897 C-5.68984991 177.76249672 2.41739234 177.72001594 9.86962891 177.65942383 C11.40796135 177.66507355 11.40796135 177.66507355 12.97737122 177.6708374 C15.18876929 177.67723973 17.40019492 177.67696837 19.61159325 177.67065239 C23.11326262 177.66150313 26.61440107 177.67180865 30.11604309 177.68727112 C40.06612387 177.72727522 50.01616073 177.72856847 59.96630859 177.72631836 C66.06517409 177.72626728 72.16375067 177.74541723 78.262537 177.77565193 C81.70932786 177.78647574 85.15556757 177.77435051 88.6023407 177.76182556 C90.71618191 177.77072868 92.83001862 177.78080261 94.94384766 177.79223633 C95.89931488 177.78249283 96.8547821 177.77274933 97.83920288 177.76271057 C103.46656923 177.82346202 106.77072766 178.48811989 111.21264648 182.29052734 C115.26895047 187.51312592 114.98662192 192.94392877 114.21264648 199.29052734 C112.04236287 203.8722372 109.80118489 206.21747927 105.21264648 208.29052734 C101.5692664 208.7406678 97.94610682 208.71047684 94.27880859 208.69458008 C93.17569336 208.70144333 92.07257812 208.70830658 90.93603516 208.71537781 C87.28722267 208.73368514 83.63883884 208.72980048 79.98999023 208.72412109 C77.44755412 208.72868294 74.90511924 208.73398852 72.36268616 208.74000549 C67.0288434 208.74894583 61.69515627 208.7467396 56.36132812 208.73657227 C50.22251865 208.72512798 44.08414794 208.73910472 37.94539636 208.76596874 C32.01604148 208.79093244 26.08682098 208.79327935 20.15741158 208.78685188 C17.64697098 208.78669911 15.13652178 208.79270688 12.62611198 208.80514336 C9.10116607 208.82013751 5.57716393 208.80931127 2.05224609 208.79223633 C0.5157415 208.80673828 0.5157415 208.80673828 -1.05180359 208.8215332 C-13.91343539 208.69205903 -25.55750311 203.91893438 -35.04125977 195.22412109 C-45.6625546 183.95788995 -49.08935272 172.63833222 -49.07788086 157.55322266 C-49.08459808 156.28239838 -49.09131531 155.0115741 -49.09823608 153.70223999 C-49.11583092 150.23093278 -49.12058875 146.75972431 -49.12186766 143.28837681 C-49.12329376 141.1144694 -49.12757206 138.94058673 -49.13286209 136.76668549 C-49.15134231 129.16784586 -49.15953541 121.56907619 -49.15795898 113.97021484 C-49.15675881 106.91116104 -49.17784175 99.85241359 -49.20944631 92.79343724 C-49.23568836 86.71332986 -49.24632294 80.63332203 -49.24504817 74.55315852 C-49.24454076 70.93048356 -49.25009971 67.30808099 -49.27140427 63.68546295 C-49.294556 59.63856937 -49.28521761 55.59235222 -49.27319336 51.54541016 C-49.28443237 50.36165802 -49.29567139 49.17790588 -49.30725098 47.95828247 C-49.2092233 34.921307 -44.49151134 23.74245662 -35.75610352 14.03271484 C-25.68120388 4.43235758 -13.69001815 -0.01392418 0 0 Z " fill="#ffffff" transform="translate(2033.787353515625,212.70947265625)"/>
<path d="M0 0 C4.61581142 2.18643699 6.72864085 4.49599804 9 9 C9.43359375 11.90234375 9.43359375 11.90234375 9.4375 14.9375 C9.45683594 15.93652344 9.47617188 16.93554688 9.49609375 17.96484375 C8.68835565 22.90667451 6.24568563 26.06612582 2.27099609 29.04589844 C0.72532959 29.94356934 0.72532959 29.94356934 -0.8515625 30.859375 C-1.69963974 31.35893707 -1.69963974 31.35893707 -2.56484985 31.86859131 C-4.36889579 32.92627947 -6.1834882 33.96389488 -8 35 C-9.19022412 35.68998735 -10.38000531 36.38073932 -11.56933594 37.07226562 C-15.15969062 39.15195678 -18.76620662 41.20252648 -22.375 43.25 C-24.20921565 44.29383105 -26.04308172 45.33827273 -27.87675476 46.38305664 C-29.5927801 47.35897225 -31.31160457 48.32996082 -33.03051758 49.30078125 C-34.76625236 50.29401599 -36.49274879 51.30441096 -38.1940918 52.35546875 C-43.76476476 55.79345717 -48.62669575 55.87632933 -55 55 C-59.61581142 52.81356301 -61.72864085 50.50400196 -64 46 C-64.43359375 43.09765625 -64.43359375 43.09765625 -64.4375 40.0625 C-64.45683594 39.06347656 -64.47617188 38.06445312 -64.49609375 37.03515625 C-63.68835565 32.09332549 -61.24568563 28.93387418 -57.27099609 25.95410156 C-56.24055176 25.3556543 -55.21010742 24.75720703 -54.1484375 24.140625 C-53.58305267 23.80758362 -53.01766785 23.47454224 -52.43515015 23.13140869 C-50.63110421 22.07372053 -48.8165118 21.03610512 -47 20 C-45.80977588 19.31001265 -44.61999469 18.61926068 -43.43066406 17.92773438 C-39.84030938 15.84804322 -36.23379338 13.79747352 -32.625 11.75 C-30.79078435 10.70616895 -28.95691828 9.66172727 -27.12324524 8.61694336 C-25.4072199 7.64102775 -23.68839543 6.67003918 -21.96948242 5.69921875 C-20.23374764 4.70598401 -18.50725121 3.69558904 -16.8059082 2.64453125 C-11.23523524 -0.79345717 -6.37330425 -0.87632933 0 0 Z " fill="#ffffff" transform="translate(2102,290)"/>
<path d="M0 0 C4.61581142 2.18643699 6.72864085 4.49599804 9 9 C9.43359375 11.90234375 9.43359375 11.90234375 9.4375 14.9375 C9.45683594 15.93652344 9.47617187 16.93554688 9.49609375 17.96484375 C8.68883441 22.90374536 6.281355 26.0683962 2.26123047 28.99121094 C1.22369629 29.56645508 0.18616211 30.14169922 -0.8828125 30.734375 C-1.73382034 31.21441986 -1.73382034 31.21441986 -2.60202026 31.7041626 C-4.43538598 32.73388381 -6.27923571 33.7426977 -8.125 34.75 C-9.39767501 35.45475563 -10.66980768 36.16049149 -11.94140625 36.8671875 C-13.84521385 37.92439241 -15.74979271 38.97996544 -17.65802002 40.0291748 C-21.29739208 42.03345281 -24.88200619 44.10356548 -28.4296875 46.265625 C-43.46964862 55.34805759 -43.46964862 55.34805759 -53 53 C-57.61581142 50.81356301 -59.72864085 48.50400196 -62 44 C-62.43359375 41.09765625 -62.43359375 41.09765625 -62.4375 38.0625 C-62.45683594 37.06347656 -62.47617187 36.06445312 -62.49609375 35.03515625 C-61.68883441 30.09625464 -59.281355 26.9316038 -55.26123047 24.00878906 C-53.7049292 23.14592285 -53.7049292 23.14592285 -52.1171875 22.265625 C-51.54984894 21.94559509 -50.98251038 21.62556519 -50.39797974 21.2958374 C-48.56461402 20.26611619 -46.72076429 19.2573023 -44.875 18.25 C-43.60232499 17.54524437 -42.33019232 16.83950851 -41.05859375 16.1328125 C-39.15478615 15.07560759 -37.25020729 14.02003456 -35.34197998 12.9708252 C-31.70260792 10.96654719 -28.11799381 8.89643452 -24.5703125 6.734375 C-9.53035138 -2.34805759 -9.53035138 -2.34805759 0 0 Z " fill="#000000" transform="translate(618,287)"/>
<path d="M0 0 C4.61581142 2.18643699 6.72864085 4.49599804 9 9 C9.80326604 14.37681686 9.70036782 19.35565817 7.5625 24.375 C0.43945858 31.67177414 -9.43105117 36.2051141 -18.25 41.1875 C-20.13575539 42.25682001 -22.02097158 43.32708328 -23.90594482 44.39778137 C-25.60468199 45.36208658 -27.30474236 46.32405973 -29.00488281 47.28588867 C-30.9284304 48.38673865 -32.83327759 49.52131418 -34.7121582 50.69677734 C-39.10442102 53.19874073 -44.11173146 52.59613031 -49 52 C-53.61581142 49.81356301 -55.72864085 47.50400196 -58 43 C-58.80326604 37.62318314 -58.70036782 32.64434183 -56.5625 27.625 C-49.43945858 20.32822586 -39.56894883 15.7948859 -30.75 10.8125 C-28.86424461 9.74317999 -26.97902842 8.67291672 -25.09405518 7.60221863 C-23.39531801 6.63791342 -21.69525764 5.67594027 -19.99511719 4.71411133 C-18.0715696 3.61326135 -16.16672241 2.47868582 -14.2878418 1.30322266 C-9.89557898 -1.19874073 -4.88826854 -0.59613031 0 0 Z " fill="#ffffff" transform="translate(1576,327)"/>
</svg>