<?xml version="1.0" standalone="no"?>
<!DOCTYPE svg PUBLIC "-//W3C//DTD SVG 20010904//EN"
 "http://www.w3.org/TR/2001/REC-SVG-20010904/DTD/svg10.dtd">
<svg version="1.0" xmlns="http://www.w3.org/2000/svg"
 width="22332.000000pt" height="1394.000000pt" viewBox="0 0 22332.000000 1394.000000"
 preserveAspectRatio="xMidYMid meet">

<g transform="translate(0.000000,1394.000000) scale(0.100000,-0.100000)"
fill="#000000" stroke="none">
<path d="M61172 12650 c-829 -64 -1571 -532 -1982 -1250 -27 -47 -79 -155
-115 -240 -85 -196 -2482 -6861 -2502 -6955 -18 -83 -12 -222 13 -305 65 -222
255 -403 475 -455 91 -21 229 -19 323 5 187 48 345 179 427 355 15 33 568
1565 1229 3404 661 1840 1219 3385 1241 3434 106 244 322 467 564 582 167 79
328 115 515 115 323 0 608 -118 835 -345 110 -109 193 -232 251 -368 23 -56
585 -1611 1248 -3455 663 -1845 1217 -3375 1232 -3401 62 -116 167 -217 287
-278 118 -59 309 -80 446 -48 337 80 558 429 487 766 -22 100 -2404 6723
-2496 6937 -81 189 -138 293 -245 447 -395 568 -1027 950 -1715 1039 -153 20
-379 26 -518 16z"/>
<path d="M29352 12630 c-1358 -73 -2584 -557 -3527 -1391 -133 -117 -382 -371
-486 -494 -568 -675 -902 -1431 -1006 -2275 -22 -182 -25 -673 -5 -855 146
-1315 890 -2474 2099 -3269 829 -544 1787 -857 2843 -927 197 -13 761 -7 930
11 802 81 1455 264 2110 591 340 170 574 315 860 530 1405 1062 2064 2663
1749 4254 -73 371 -191 710 -369 1060 -551 1090 -1559 1948 -2830 2413 -491
179 -1055 300 -1595 341 -192 15 -597 21 -773 11z m720 -1325 c1274 -112 2390
-700 3051 -1607 305 -418 497 -914 548 -1412 15 -152 6 -525 -15 -660 -84
-519 -293 -984 -632 -1411 -116 -146 -398 -426 -554 -551 -971 -774 -2311
-1096 -3638 -874 -1296 217 -2400 970 -2906 1980 -460 920 -395 1941 182 2819
200 304 507 626 827 867 648 488 1499 794 2385 857 141 10 603 5 752 -8z"/>
<path d="M206640 12625 c-101 -14 -237 -44 -335 -74 -686 -212 -1223 -774
-1400 -1465 -69 -270 -65 -86 -65 -2884 0 -1707 3 -2555 11 -2612 48 -388 207
-762 456 -1070 72 -89 243 -257 328 -321 314 -240 671 -386 1045 -429 66 -8
779 -10 2350 -8 l2255 3 72 26 c148 54 278 166 346 298 62 119 72 162 72 306
0 145 -10 187 -74 309 -68 132 -218 255 -376 307 -33 11 -452 15 -2280 19
l-2240 5 -80 23 c-156 44 -281 118 -386 228 -100 107 -159 212 -202 363 l-22
76 -3 2410 c-2 1676 0 2439 8 2504 22 192 94 344 230 481 97 99 190 158 318
204 l87 31 1910 5 c1798 5 1913 7 1969 24 137 41 264 126 342 228 266 353 112
858 -306 1001 l-65 22 -1935 2 c-1542 1 -1954 -2 -2030 -12z"/>
<path d="M112441 12614 c-84 -22 -149 -63 -227 -139 -120 -119 -184 -252 -204
-423 -12 -107 1 -227 34 -324 47 -135 161 -271 283 -335 122 -66 65 -63 1275
-63 l1098 0 3 -3692 c2 -3483 3 -3697 20 -3757 35 -130 108 -240 206 -314 93
-70 154 -89 297 -95 201 -7 290 24 415 148 54 54 85 94 108 143 65 137 61
-159 61 3884 l0 3683 1133 2 1132 3 56 23 c137 55 257 169 325 309 86 178 86
420 -1 608 -81 176 -235 310 -393 344 -39 8 -803 11 -2810 10 -2376 0 -2764
-2 -2811 -15z"/>
<path d="M122041 12614 c-88 -23 -151 -64 -236 -149 -87 -87 -143 -174 -178
-275 l-22 -65 -3 -4078 c-2 -3702 -1 -4084 14 -4140 45 -175 189 -346 344
-409 49 -20 72 -23 206 -23 l150 0 78 39 c127 62 223 175 285 334 l26 67 3
1657 2 1657 1798 4 c1947 3 1834 0 2090 56 928 203 1530 980 1669 2156 13 115
17 227 17 485 0 258 -4 370 -17 485 -82 688 -326 1257 -701 1631 -308 306
-667 480 -1161 562 -91 15 -299 16 -2205 19 -1821 2 -2112 0 -2159 -13z m4233
-1299 c172 -23 279 -58 408 -133 341 -200 498 -586 498 -1228 0 -494 -124
-875 -363 -1116 -180 -182 -351 -267 -600 -298 -53 -6 -688 -10 -1794 -10
l-1713 0 0 1400 0 1400 1728 0 c1450 0 1744 -3 1836 -15z"/>
<path d="M150887 12600 c-819 -74 -1538 -625 -1807 -1386 -17 -49 -418 -1394
-891 -2989 -473 -1595 -874 -2929 -890 -2965 -83 -178 -271 -325 -499 -390
-376 -107 -800 88 -959 442 -16 34 -432 1373 -926 2973 -493 1601 -915 2957
-938 3014 -47 120 -138 284 -223 402 -72 100 -232 270 -331 350 -297 243 -692
413 -1078 464 -148 19 -411 19 -557 0 -511 -67 -1005 -336 -1329 -723 -161
-193 -304 -440 -378 -655 -17 -48 -482 -1608 -1033 -3465 l-1002 -3377 -4
-110 c-5 -136 12 -217 68 -324 78 -151 212 -264 374 -318 70 -23 97 -27 201
-27 105 0 130 4 200 28 180 62 323 191 390 351 14 33 475 1579 1025 3435 551
1856 1014 3404 1031 3439 144 309 490 504 824 463 267 -33 503 -182 606 -383
10 -20 424 -1352 919 -2960 496 -1608 917 -2964 937 -3014 194 -491 554 -879
1035 -1115 595 -292 1278 -288 1883 10 448 221 784 567 966 996 33 76 314
1010 919 3049 479 1617 882 2965 895 2996 98 243 339 435 609 486 96 18 259
13 351 -12 213 -57 409 -215 510 -410 27 -52 300 -941 1066 -3475 736 -2434
1040 -3426 1066 -3478 19 -40 62 -101 94 -136 246 -268 664 -283 928 -33 142
136 222 364 192 554 -6 39 -481 1625 -1056 3524 -1003 3314 -1048 3459 -1110
3587 -306 632 -893 1063 -1590 1166 -129 20 -363 27 -488 16z"/>
<path d="M161930 12604 c-455 -39 -842 -170 -1190 -402 -286 -190 -497 -401
-684 -681 -85 -127 -143 -238 -219 -416 -73 -172 -2407 -6663 -2424 -6740 -60
-279 84 -579 337 -702 193 -95 387 -95 580 0 119 58 221 160 278 277 23 47
571 1559 1218 3360 647 1801 1198 3320 1224 3375 157 333 486 576 859 636 97
15 293 12 389 -6 92 -18 229 -63 307 -102 231 -116 439 -334 538 -565 20 -47
568 -1563 1217 -3368 649 -1805 1197 -3314 1217 -3352 117 -224 394 -359 652
-319 345 54 583 369 540 712 -8 70 -189 580 -1199 3388 -654 1818 -1216 3369
-1249 3445 -71 163 -110 236 -195 366 -378 576 -995 970 -1678 1070 -126 19
-421 32 -518 24z"/>
<path d="M187065 12599 c-513 -48 -993 -250 -1380 -581 -137 -117 -242 -229
-355 -379 -118 -156 -189 -278 -275 -472 -47 -104 -490 -1324 -1250 -3437
-648 -1801 -1184 -3295 -1192 -3320 -73 -237 1 -506 185 -670 66 -59 189 -123
282 -146 90 -23 261 -15 350 15 144 49 290 172 358 298 17 32 564 1541 1215
3353 652 1812 1201 3332 1221 3378 175 407 598 682 1049 682 320 0 604 -117
827 -340 100 -100 184 -221 235 -340 20 -47 570 -1568 1221 -3380 652 -1812
1199 -3321 1216 -3352 68 -127 207 -245 350 -295 97 -35 262 -43 358 -19 266
66 452 275 490 550 15 101 1 197 -49 339 -196 564 -2347 6525 -2393 6632 -110
257 -229 450 -401 651 -388 452 -944 749 -1547 824 -123 15 -399 20 -515 9z"/>
<path d="M104320 12589 c-1093 -38 -2146 -372 -3024 -960 -323 -216 -543 -398
-807 -666 -361 -367 -620 -726 -839 -1166 -289 -579 -430 -1173 -430 -1817 0
-983 341 -1894 1009 -2700 123 -149 383 -414 536 -546 694 -601 1562 -1029
2490 -1229 493 -106 862 -140 1414 -132 444 7 676 30 1081 108 1414 274 2670
1067 3412 2154 397 582 634 1208 720 1905 8 67 13 227 13 440 0 350 -6 427
-50 688 -99 574 -329 1136 -673 1642 -771 1135 -2074 1940 -3557 2195 -417 72
-845 99 -1295 84z m591 -1319 c640 -50 1211 -205 1758 -480 1007 -505 1701
-1361 1875 -2314 150 -816 -65 -1616 -623 -2316 -98 -124 -378 -404 -511 -512
-554 -449 -1234 -755 -1981 -892 -305 -56 -475 -70 -864 -70 -385 0 -500 8
-810 60 -986 165 -1872 635 -2462 1306 -1054 1198 -1011 2811 106 3970 684
710 1690 1160 2786 1247 159 12 569 13 726 1z"/>
<path d="M214832 12575 c-214 -47 -406 -223 -480 -440 l-27 -80 0 -3980 0
-3980 22 -70 c53 -167 203 -322 380 -393 65 -25 77 -26 243 -27 192 0 233 8
337 67 113 63 222 192 274 323 l24 60 3 1683 2 1682 1647 -2 1646 -3 753
-1565 c1065 -2213 932 -1949 1033 -2051 69 -68 103 -94 171 -127 250 -124 536
-84 737 102 192 178 258 424 177 663 -9 26 -342 717 -740 1535 -398 818 -724
1489 -724 1491 0 3 37 10 83 17 286 41 644 173 867 317 203 133 422 332 548
500 230 305 392 663 466 1025 51 251 61 368 61 718 0 351 -10 458 -61 690 -95
430 -331 849 -642 1140 -348 326 -793 541 -1345 649 -358 70 -152 65 -2907 68
-2079 1 -2495 -1 -2548 -12z m5083 -1287 c392 -65 622 -166 815 -359 246 -246
348 -568 319 -1008 -47 -713 -485 -1135 -1258 -1211 -66 -6 -832 -10 -2142
-10 l-2039 0 0 1305 0 1305 2103 -3 c1899 -3 2112 -4 2202 -19z"/>
<path d="M1946 12549 c-893 -85 -1650 -731 -1872 -1596 -68 -268 -64 -15 -64
-3666 0 -3680 -7 -3346 72 -3507 78 -160 234 -284 414 -330 93 -24 232 -26
322 -5 221 52 408 233 480 465 15 51 17 282 22 3355 l5 3300 23 75 c43 140
107 244 212 351 110 111 191 163 330 210 83 28 111 33 225 37 107 3 145 0 217
-17 161 -38 283 -108 399 -228 52 -53 540 -783 2279 -3408 1306 -1972 2241
-3374 2283 -3423 133 -157 314 -310 507 -428 225 -137 468 -227 755 -279 122
-22 450 -31 585 -16 505 58 953 279 1305 643 316 326 504 704 583 1169 16 97
17 316 17 3439 l0 3335 -27 81 c-82 240 -280 406 -533 444 -138 21 -301 -10
-422 -80 -123 -71 -244 -219 -295 -360 l-23 -65 -5 -3300 -5 -3300 -21 -75
c-49 -168 -121 -287 -249 -408 -67 -64 -105 -90 -187 -130 -146 -72 -205 -86
-368 -86 -111 0 -149 4 -214 22 -85 24 -192 74 -261 122 -119 82 -86 33 -2369
3480 -1215 1834 -2234 3367 -2265 3405 -30 39 -100 115 -156 170 -319 316
-737 524 -1187 590 -136 20 -383 27 -512 14z"/>
<path d="M16625 12543 c-272 -34 -503 -102 -725 -213 -670 -336 -1110 -978
-1180 -1720 -8 -80 -10 -894 -8 -2700 l4 -2585 22 -115 c75 -385 214 -695 442
-980 79 -98 236 -256 330 -331 239 -192 550 -344 846 -414 241 -58 135 -56
2654 -53 l2315 3 65 22 c163 56 305 178 378 323 55 111 72 182 72 301 0 301
-173 535 -470 635 -53 18 -146 19 -2360 24 -2606 6 -2333 -3 -2527 90 -175 85
-331 255 -402 438 -59 156 -56 -13 -56 2732 l0 2525 22 85 c76 287 294 512
583 602 l75 23 1955 5 c2180 6 1983 -1 2139 76 108 53 224 170 279 281 56 113
76 209 70 337 -8 170 -68 305 -188 426 -73 72 -146 119 -248 159 l-67 26
-1995 1 c-1097 1 -2008 -1 -2025 -3z"/>
<path d="M37666 12534 c-125 -30 -260 -115 -344 -217 -118 -142 -175 -355
-142 -528 6 -30 479 -1624 1051 -3544 795 -2664 1053 -3516 1089 -3598 55
-123 130 -253 217 -374 344 -482 888 -800 1493 -873 109 -13 371 -13 480 0
408 50 802 216 1118 472 293 237 534 579 659 933 13 39 422 1393 909 3010 600
1996 896 2964 921 3015 28 59 55 94 127 165 104 104 208 165 362 211 77 24
107 28 224 28 143 1 202 -10 322 -58 103 -42 170 -88 269 -186 164 -163 75
103 1095 -3255 492 -1622 911 -2990 931 -3040 225 -575 732 -1015 1368 -1190
673 -184 1366 -43 1918 392 275 216 522 554 652 893 18 47 500 1635 1071 3530
l1037 3445 1 125 c1 104 -3 137 -22 200 -63 202 -225 368 -422 432 -102 32
-273 37 -375 9 -194 -54 -357 -192 -430 -366 -14 -33 -486 -1594 -1050 -3470
-728 -2422 -1037 -3433 -1064 -3490 -160 -334 -530 -520 -893 -451 -238 46
-457 194 -542 368 -24 49 -328 1035 -940 3048 -597 1963 -920 3012 -951 3085
-301 705 -959 1195 -1729 1286 -145 17 -472 7 -611 -20 -747 -141 -1340 -609
-1598 -1261 -14 -36 -429 -1406 -922 -3045 -971 -3225 -922 -3074 -1035 -3212
-75 -90 -162 -158 -275 -213 -125 -61 -192 -79 -325 -86 -222 -13 -433 65
-594 217 -90 85 -163 184 -196 266 -11 26 -481 1596 -1045 3488 -799 2679
-1035 3459 -1067 3525 -78 160 -241 289 -423 335 -74 19 -239 18 -319 -1z"/>
<path d="M68990 12534 c-179 -46 -341 -176 -418 -334 -61 -125 -75 -191 -69
-330 l4 -115 1032 -3397 c567 -1868 1045 -3432 1062 -3475 305 -768 1031
-1311 1924 -1439 176 -25 477 -23 660 5 460 70 875 257 1231 555 302 253 560
618 697 986 46 123 2065 6694 2083 6780 72 338 -149 685 -489 765 -81 19 -237
19 -312 0 -182 -47 -336 -169 -424 -335 -18 -34 -423 -1339 -1046 -3365 -559
-1821 -1025 -3334 -1035 -3363 -100 -269 -293 -483 -555 -613 -160 -79 -273
-109 -441 -116 -155 -7 -259 6 -394 49 -192 61 -328 138 -455 260 -92 86 -152
167 -199 269 -22 46 -427 1366 -1057 3444 -717 2366 -1031 3389 -1055 3435
-87 167 -246 292 -425 335 -80 19 -246 18 -319 -1z"/>
<path d="M81995 12534 c-859 -117 -1575 -761 -1784 -1604 -64 -261 -61 -104
-61 -2940 0 -2777 -2 -2670 50 -2898 50 -217 152 -463 273 -659 335 -540 911
-909 1542 -988 117 -14 360 -15 2440 -13 l2310 3 73 27 c260 95 427 318 439
588 6 123 -14 219 -68 330 -74 151 -225 278 -399 337 -53 17 -153 18 -2360 23
l-2305 5 -74 23 c-289 89 -500 302 -583 588 l-23 79 0 2555 c0 2452 1 2558 18
2620 74 259 249 466 477 561 164 69 -25 63 2140 69 l1955 5 81 28 c221 74 393
265 440 488 19 89 14 236 -11 319 -68 224 -242 394 -463 451 -73 18 -128 19
-2041 18 -1602 -1 -1985 -4 -2066 -15z"/>
<path d="M171394 12530 c-282 -23 -531 -93 -784 -220 -660 -331 -1093 -980
-1150 -1720 -14 -193 -14 -6351 1 -6456 29 -213 156 -391 344 -484 105 -52
179 -70 290 -70 184 0 322 57 451 185 86 85 128 150 166 255 l23 65 5 3240 c5
3072 6 3243 23 3299 47 156 101 254 196 358 108 116 223 188 374 232 275 80
565 9 773 -189 67 -64 244 -328 2130 -3175 2610 -3940 2312 -3499 2464 -3651
346 -350 768 -553 1264 -610 128 -15 452 -6 571 16 450 81 832 280 1145 595
333 334 542 768 595 1239 14 120 15 504 13 3356 l-3 3220 -28 80 c-44 122
-107 215 -200 293 -61 51 -190 115 -267 133 -77 17 -222 15 -300 -5 -218 -55
-391 -221 -467 -446 -17 -53 -18 -179 -23 -3295 -5 -3048 -6 -3244 -23 -3300
-34 -118 -111 -257 -189 -340 -171 -183 -357 -264 -604 -265 -221 0 -414 81
-566 237 -40 41 -690 1014 -2233 3343 -1198 1807 -2198 3310 -2223 3340 -124
150 -319 317 -507 435 -358 225 -834 340 -1261 305z"/>
<path d="M198004 12530 c-725 -34 -1355 -195 -1974 -504 -525 -263 -977 -608
-1344 -1026 -521 -593 -881 -1344 -1011 -2112 -105 -624 -79 -1330 71 -1933
213 -850 730 -1653 1424 -2211 574 -461 1243 -776 2000 -943 535 -117 1127
-147 1720 -85 942 97 1704 378 2320 855 388 300 658 716 774 1190 60 250 59
232 63 1235 4 1023 5 1004 -61 1139 -66 134 -210 260 -352 310 -82 29 -207 44
-218 26 -4 -6 -35 -11 -74 -11 -84 0 -177 -22 -250 -58 -32 -16 -435 -244
-897 -508 -815 -464 -842 -481 -916 -554 -254 -252 -251 -673 6 -924 120 -118
254 -176 421 -184 118 -5 216 13 309 57 33 15 222 121 420 234 198 113 369
209 379 213 17 7 18 -4 14 -267 -5 -241 -8 -284 -27 -354 -87 -322 -395 -642
-827 -858 -360 -180 -804 -296 -1289 -337 -282 -24 -788 -9 -1035 31 -421 68
-730 167 -1100 355 -491 248 -898 603 -1192 1039 -362 537 -548 1187 -524
1832 44 1223 682 2230 1741 2748 396 193 776 303 1260 362 189 23 865 26 1035
5 395 -49 647 -120 931 -261 289 -144 497 -283 716 -478 182 -162 273 -198
478 -191 98 4 132 10 187 31 191 74 342 248 383 442 37 175 2 298 -135 485
-325 441 -1079 859 -1939 1075 -440 110 -979 159 -1487 135z"/>
<path d="M19622 9310 c-28 -6 -78 -19 -110 -30 -31 -11 -484 -264 -1006 -563
-839 -479 -957 -549 -1011 -602 -203 -200 -252 -507 -123 -768 82 -165 262
-304 443 -342 138 -29 290 -13 409 43 105 50 1868 1061 1924 1104 65 50 134
141 179 233 142 299 31 665 -255 839 -124 75 -310 111 -450 86z"/>
<path d="M209583 9205 c-29 -8 -69 -21 -89 -30 -21 -9 -472 -264 -1003 -568
-910 -520 -970 -556 -1037 -622 -126 -124 -188 -273 -187 -450 1 -253 129
-461 354 -575 147 -75 332 -86 497 -29 30 10 494 270 1030 577 897 512 980
562 1041 622 77 76 133 166 164 265 18 56 22 94 22 190 0 96 -4 134 -22 190
-66 209 -248 381 -454 430 -80 18 -247 18 -316 0z"/>
<path d="M85023 9181 c-39 -11 -91 -29 -115 -41 -23 -12 -482 -272 -1018 -578
-969 -554 -975 -558 -1056 -638 -65 -64 -90 -97 -122 -165 -45 -94 -72 -206
-72 -301 1 -298 221 -568 516 -633 106 -24 254 -17 349 17 81 28 2008 1127
2097 1194 103 80 191 222 224 360 22 96 15 265 -15 354 -68 200 -229 358 -426
420 -101 32 -265 37 -362 11z"/>
<path d="M187835 7670 c-27 -5 -76 -18 -108 -29 -70 -24 -1699 -951 -1784
-1016 -95 -71 -164 -170 -209 -300 -24 -70 -28 -96 -28 -200 0 -106 3 -129 28
-200 70 -202 210 -343 407 -409 150 -50 327 -42 463 22 91 43 1672 947 1728
988 105 77 198 221 233 359 20 78 19 222 -1 304 -54 219 -239 409 -454 466
-70 19 -211 27 -275 15z"/>
<path d="M61900 7504 c-35 -7 -83 -21 -105 -29 -22 -9 -429 -238 -904 -508
-940 -536 -953 -544 -1039 -680 -93 -147 -125 -333 -87 -502 53 -238 243 -431
485 -491 96 -24 283 -15 370 17 71 27 1707 955 1807 1026 102 72 189 193 233
323 31 93 38 244 16 344 -56 250 -259 450 -508 500 -93 19 -181 19 -268 0z"/>
<path d="M162588 7465 c-31 -8 -78 -25 -105 -37 -113 -55 -1697 -965 -1738
-999 -95 -78 -174 -200 -211 -324 -29 -96 -25 -268 9 -370 65 -197 210 -341
412 -411 134 -46 343 -36 460 23 16 8 410 232 874 496 747 426 851 488 905
542 200 197 249 490 125 745 -78 158 -242 292 -414 335 -73 19 -239 18 -317 0z"/>
</g>
</svg>
