<?xml version="1.0" encoding="UTF-8"?>
<!DOCTYPE svg PUBLIC "-//W3C//DTD SVG 1.1//EN" "http://www.w3.org/Graphics/SVG/1.1/DTD/svg11.dtd">
<svg xmlns="http://www.w3.org/2000/svg" version="1.1" width="22732px" height="1487px" style="shape-rendering:geometricPrecision; text-rendering:geometricPrecision; image-rendering:optimizeQuality; fill-rule:evenodd; clip-rule:evenodd" xmlns:xlink="http://www.w3.org/1999/xlink">
<g><path style="opacity:0.992" fill="#fefffe" d="M 6117.5,121.5 C 6221.29,118.463 6300.12,160.796 6354,248.5C 6360.39,261.666 6366.39,274.999 6372,288.5C 6452.67,513.167 6533.33,737.833 6614,962.5C 6620.05,993.535 6610.22,1018.03 6584.5,1036C 6556.62,1050.46 6530.28,1048.13 6505.5,1029C 6495.14,1018.8 6487.98,1006.63 6484,992.5C 6403.59,767.605 6322.59,542.938 6241,318.5C 6218.02,277.41 6182.85,255.743 6135.5,253.5C 6081.51,256.348 6044.35,282.682 6024,332.5C 5945,552.5 5866,772.5 5787,992.5C 5773.69,1033.24 5745.86,1050.08 5703.5,1043C 5668.13,1030.26 5652.29,1005.1 5656,967.5C 5657.26,961.72 5658.93,956.053 5661,950.5C 5740.33,729.833 5819.67,509.167 5899,288.5C 5938.44,189.238 6011.27,133.571 6117.5,121.5 Z"/></g>
<g><path style="opacity:0.993" fill="#fefffe" d="M 2935.5,123.5 C 3053.2,118.592 3163.2,145.092 3265.5,203C 3342.72,247.883 3403.55,309.049 3448,386.5C 3504.64,492.237 3514.64,602.237 3478,716.5C 3451.51,789.326 3409.68,851.826 3352.5,904C 3260.06,984.524 3152.4,1031.19 3029.5,1044C 2907.18,1056.54 2791.52,1034.54 2682.5,978C 2598.98,932.993 2532.81,869.827 2484,788.5C 2423.51,678.151 2413.85,563.484 2455,444.5C 2486.81,363.021 2537.31,295.521 2606.5,242C 2703.93,169.317 2813.6,129.817 2935.5,123.5 Z M 2945.5,255.5 C 3049.29,251.937 3143.96,279.104 3229.5,337C 3284.56,376.059 3324.72,426.892 3350,489.5C 3381.85,584.229 3368.85,672.229 3311,753.5C 3258.69,821.087 3191.53,867.587 3109.5,893C 2997.74,926.478 2887.74,921.478 2779.5,878C 2712.57,850.06 2657.74,806.893 2615,748.5C 2556.47,662.06 2546.81,570.394 2586,473.5C 2609.24,423.879 2642.41,382.045 2685.5,348C 2762.48,290.504 2849.14,259.671 2945.5,255.5 Z"/></g>
<g><path style="opacity:0.993" fill="#fefffe" d="M 20999.5,128.5 C 21131.5,128.333 21263.5,128.5 21395.5,129C 21424.2,133.688 21443,149.855 21452,177.5C 21459.7,215.335 21446.2,242.502 21411.5,259C 21407.9,260.408 21404.3,261.408 21400.5,262C 21268.9,263.323 21137.2,263.99 21005.5,264C 20972.8,269.258 20950,287.091 20937,317.5C 20934.4,323.943 20932.8,330.61 20932,337.5C 20931.3,508.5 20931.3,679.5 20932,850.5C 20940,894.494 20966.2,919.327 21010.5,925C 21163.2,925.333 21315.8,925.667 21468.5,926C 21499,932.5 21517.5,951 21524,981.5C 21527.2,1019.91 21510.7,1045.41 21474.5,1058C 21469.5,1059 21464.5,1059.66 21459.5,1060C 21310.2,1060.67 21160.8,1060.67 21011.5,1060C 20926.3,1055.49 20862.8,1016.32 20821,942.5C 20807.1,915.143 20799.1,886.143 20797,855.5C 20796.3,681.167 20796.3,506.833 20797,332.5C 20806.3,243.265 20851.8,180.432 20933.5,144C 20954.9,135.691 20976.9,130.525 20999.5,128.5 Z"/></g>
<g><path style="opacity:0.994" fill="#fefffe" d="M -0.5,987.5 C -0.5,768.833 -0.5,550.167 -0.5,331.5C 7.22935,254.181 44.5627,196.014 111.5,157C 162.831,130.445 216.498,124.445 272.5,139C 318.356,152.489 355.856,177.989 385,215.5C 532,437.5 679,659.5 826,881.5C 849.021,908.396 877.854,917.896 912.5,910C 945.954,898.543 965.787,875.376 972,840.5C 972.333,623.833 972.667,407.167 973,190.5C 978.144,158.355 996.644,138.855 1028.5,132C 1061.64,128.648 1085.48,141.815 1100,171.5C 1101.64,176.077 1102.98,180.744 1104,185.5C 1104.67,407.5 1104.67,629.5 1104,851.5C 1096.05,918.046 1064.88,970.546 1010.5,1009C 944.272,1050.3 874.939,1056.3 802.5,1027C 770.719,1012.53 743.885,991.694 722,964.5C 573,739.833 424,515.167 275,290.5C 248.558,264.183 217.725,257.349 182.5,270C 152.545,283.975 135.712,307.475 132,340.5C 131.995,558.867 131.328,777.201 130,995.5C 119.972,1026.93 98.4723,1043.6 65.5,1045.5C 28.7399,1042.73 6.73994,1023.4 -0.5,987.5 Z"/></g>
<g><path style="opacity:0.993" fill="#fefffe" d="M 1670.5,131.5 C 1801.53,131.012 1932.53,131.512 2063.5,133C 2095.96,142.466 2113.29,164.132 2115.5,198C 2113.05,233.114 2094.72,254.781 2060.5,263C 1933.83,263.333 1807.17,263.667 1680.5,264C 1637.38,269.122 1611.55,292.955 1603,335.5C 1602.33,504.167 1602.33,672.833 1603,841.5C 1611.81,884.98 1638.31,908.813 1682.5,913C 1831.83,913.333 1981.17,913.667 2130.5,914C 2167.43,924.022 2185.27,948.189 2184,986.5C 2178.5,1020 2159,1039.5 2125.5,1045C 1974.5,1045.67 1823.5,1045.67 1672.5,1045C 1586.79,1037.25 1525.29,994.749 1488,917.5C 1476.25,890.403 1470.25,862.07 1470,832.5C 1469.33,669.833 1469.33,507.167 1470,344.5C 1472.72,266.857 1506.22,206.691 1570.5,164C 1601.4,145.42 1634.74,134.587 1670.5,131.5 Z"/></g>
<g><path style="opacity:0.993" fill="#fefffe" d="M 3774.5,131.5 C 3807.19,130.081 3830.36,144.081 3844,173.5C 3913,404.5 3982,635.5 4051,866.5C 4070.35,905.258 4101.51,921.425 4144.5,915C 4172.04,907.982 4191.54,891.482 4203,865.5C 4263.93,662.702 4325.27,460.036 4387,257.5C 4414.59,197.751 4460.09,158.584 4523.5,140C 4609.94,118.894 4683.77,140.394 4745,204.5C 4764.34,227.222 4778.67,252.889 4788,281.5C 4847.54,478.65 4907.54,675.65 4968,872.5C 4978.58,892.069 4994.75,904.569 5016.5,910C 5052.3,917.957 5081.8,907.79 5105,879.5C 5109.45,872.942 5113.11,865.942 5116,858.5C 5184.84,629.454 5253.84,400.454 5323,171.5C 5335.31,146.163 5355.65,132.83 5384,131.5C 5424.58,134.913 5446.75,156.913 5450.5,197.5C 5450.02,204.621 5448.86,211.621 5447,218.5C 5378.33,446.5 5309.67,674.5 5241,902.5C 5217.59,965.577 5174.42,1009.08 5111.5,1033C 5033.66,1057.75 4962.66,1045.08 4898.5,995C 4869.56,970.034 4849.4,939.201 4838,902.5C 4778.64,706.396 4718.97,510.396 4659,314.5C 4638.57,274.202 4606.07,258.369 4561.5,267C 4537.37,273.144 4519.87,287.311 4509,309.5C 4448.28,512.362 4386.95,715.029 4325,917.5C 4292.08,989.39 4236.58,1032.56 4158.5,1047C 4063.49,1056.91 3990.66,1021.74 3940,941.5C 3934.79,931.741 3930.12,921.741 3926,911.5C 3855.93,677.281 3786.26,442.948 3717,208.5C 3714.39,166.343 3733.55,140.676 3774.5,131.5 Z"/></g>
<g><path style="opacity:0.992" fill="#fefffe" d="M 6907.5,131.5 C 6939.63,129.969 6962.46,143.636 6976,172.5C 7044.8,399.238 7113.8,625.904 7183,852.5C 7197.15,880.506 7219.31,899.006 7249.5,908C 7302.27,921.191 7344.77,906.024 7377,862.5C 7380.25,856.992 7383.25,851.325 7386,845.5C 7454.64,623.604 7522.97,401.604 7591,179.5C 7601.43,149.084 7622.76,133.084 7655,131.5C 7689.68,133.852 7711.35,151.852 7720,185.5C 7720.86,195.219 7720.53,204.885 7719,214.5C 7650.33,437.833 7581.67,661.167 7513,884.5C 7485.28,957.22 7434.78,1006.72 7361.5,1033C 7272.28,1059.19 7191.61,1043.19 7119.5,985C 7088.77,957.713 7066.94,924.547 7054,885.5C 6986,660.833 6918,436.167 6850,211.5C 6845.47,167.561 6864.64,140.895 6907.5,131.5 Z"/></g>
<g><path style="opacity:0.995" fill="#fefffe" d="M 8214.5,131.5 C 8343.17,131.333 8471.83,131.5 8600.5,132C 8626.85,135.686 8645.02,149.853 8655,174.5C 8664.55,207.197 8655.71,233.697 8628.5,254C 8622.51,257.494 8616.18,260.161 8609.5,262C 8481.2,263.325 8352.87,263.991 8224.5,264C 8186.41,268.119 8161.24,288.285 8149,324.5C 8147.14,331.709 8146.14,339.043 8146,346.5C 8145.33,507.833 8145.33,669.167 8146,830.5C 8148.42,870.577 8168.59,897.077 8206.5,910C 8213.05,911.777 8219.71,912.777 8226.5,913C 8375.5,913.333 8524.5,913.667 8673.5,914C 8707.91,922.3 8726.24,944.133 8728.5,979.5C 8726.6,1009.82 8711.6,1030.65 8683.5,1042C 8678.59,1043.48 8673.59,1044.48 8668.5,1045C 8517.83,1045.67 8367.17,1045.67 8216.5,1045C 8137.55,1038.14 8078.39,1000.64 8039,932.5C 8024.12,904.332 8015.79,874.332 8014,842.5C 8013.33,673.167 8013.33,503.833 8014,334.5C 8020.29,259.711 8054.79,202.211 8117.5,162C 8147.65,144.552 8179.98,134.385 8214.5,131.5 Z"/></g>
<g><path style="opacity:0.993" fill="#fefffe" d="M 15149.5,132.5 C 15225.2,128.79 15288,155.124 15338,211.5C 15351,228.165 15362,246.165 15371,265.5C 15445.8,509.249 15519.8,753.249 15593,997.5C 15597.5,1032.67 15584,1058.17 15552.5,1074C 15521.1,1084.92 15494.3,1078.09 15472,1053.5C 15465.8,1045.45 15461.5,1036.45 15459,1026.5C 15387.9,790.773 15316.5,555.107 15245,319.5C 15228.9,287.874 15203.1,270.874 15167.5,268.5C 15125.8,271.695 15098.3,293.029 15085,332.5C 15024.5,536.893 14963.9,741.226 14903,945.5C 14879,1003.46 14837.9,1043.96 14779.5,1067C 14696.1,1096.27 14620.1,1083.27 14551.5,1028C 14517.9,997.967 14495.1,961.134 14483,917.5C 14421.7,717.701 14360.1,518.035 14298,318.5C 14287.1,298.605 14270.6,285.772 14248.5,280C 14212.2,271.431 14182,281.265 14158,309.5C 14152.6,316.893 14148.3,324.893 14145,333.5C 14078.2,558.454 14011.5,783.454 13945,1008.5C 13941.1,1022.78 13936.5,1036.78 13931,1050.5C 13910.3,1081.91 13881.8,1092.08 13845.5,1081C 13818.3,1068.63 13804,1047.47 13802.5,1017.5C 13802.6,1011.07 13803.5,1004.74 13805,998.5C 13875.9,758.696 13947.2,519.03 14019,279.5C 14054.1,199.161 14115.3,152.994 14202.5,141C 14275.6,135.488 14337.8,158.654 14389,210.5C 14407.9,231.892 14421.9,256.225 14431,283.5C 14493.5,486.561 14556.1,689.561 14619,892.5C 14639.4,934.138 14672.6,950.971 14718.5,943C 14744.9,936.564 14763.7,921.064 14775,896.5C 14835.2,694.212 14895.2,491.879 14955,289.5C 14982.7,208.385 15038.2,157.552 15121.5,137C 15130.9,135.249 15140.3,133.749 15149.5,132.5 Z"/></g>
<g><path style="opacity:0.993" fill="#fefffe" d="M 16300.5,132.5 C 16384.2,128.094 16454.7,156.094 16512,216.5C 16537.4,245.885 16556,279.218 16568,316.5C 16648.7,541.167 16729.3,765.833 16810,990.5C 16817.9,1027.63 16805,1054.8 16771.5,1072C 16741.3,1082.74 16715.1,1076.57 16693,1053.5C 16690.7,1050.17 16688.3,1046.83 16686,1043.5C 16600.3,806.833 16514.7,570.167 16429,333.5C 16400.9,284.866 16358.7,263.366 16302.5,269C 16254.9,278.568 16222.8,306.068 16206,351.5C 16124.5,578.909 16042.9,806.243 15961,1033.5C 15943.9,1069.63 15915.7,1083.13 15876.5,1074C 15838.3,1057.72 15823.8,1029.22 15833,988.5C 15915.3,759.5 15997.7,530.5 16080,301.5C 16113.1,216.783 16173.6,162.616 16261.5,139C 16274.5,136.161 16287.5,133.994 16300.5,132.5 Z"/></g>
<g><path style="opacity:0.993" fill="#fefffe" d="M 18938.5,132.5 C 19036.1,128.39 19113.6,165.39 19171,243.5C 19185.6,266.34 19197.3,290.673 19206,316.5C 19287,542.167 19368,767.833 19449,993.5C 19455.7,1027.22 19444.6,1053.05 19415.5,1071C 19382.8,1085.3 19354.3,1079.47 19330,1053.5C 19327.7,1049.83 19325.3,1046.17 19323,1042.5C 19238.2,807.09 19153.2,571.757 19068,336.5C 19044.9,292.675 19008.4,269.675 18958.5,267.5C 18908.1,270.088 18871.6,293.755 18849,338.5C 18764.9,570.681 18681.3,803.014 18598,1035.5C 18582,1069.23 18555.5,1083.06 18518.5,1077C 18483.6,1066.05 18466.4,1042.22 18467,1005.5C 18467.4,1000.05 18468.4,994.714 18470,989.5C 18552.3,760.5 18634.7,531.5 18717,302.5C 18750.8,215.646 18813,160.812 18903.5,138C 18915.2,135.729 18926.9,133.895 18938.5,132.5 Z"/></g>
<g><path style="opacity:0.996" fill="#fefffe" d="M 21846.5,134.5 C 22020.2,134.333 22193.8,134.5 22367.5,135C 22419.9,138.018 22468.9,152.352 22514.5,178C 22584.2,222.533 22622.4,286.366 22629,369.5C 22632.2,410.632 22629.2,451.298 22620,491.5C 22606.4,541.689 22580.6,584.189 22542.5,619C 22506.2,648.812 22464.5,666.645 22417.5,672.5C 22469.8,778.8 22521.3,885.467 22572,992.5C 22579,1029.1 22565.8,1055.6 22532.5,1072C 22498.5,1083.3 22470.4,1075.14 22448,1047.5C 22388.2,924.32 22328.7,800.986 22269.5,677.5C 22154.8,676.5 22040.2,676.167 21925.5,676.5C 21925.7,792.834 21925.5,909.167 21925,1025.5C 21919,1052.14 21902.9,1068.98 21876.5,1076C 21842.4,1083.08 21815.9,1072.25 21797,1043.5C 21794.1,1038.13 21792.1,1032.46 21791,1026.5C 21790.8,751.597 21790.3,476.764 21789.5,202C 21792.8,166.179 21811.8,143.679 21846.5,134.5 Z M 21925.5,268.5 C 22063.2,268.333 22200.8,268.5 22338.5,269C 22367,268.808 22394.7,273.475 22421.5,283C 22471.5,306.196 22495.8,345.529 22494.5,401C 22491.8,486.405 22447.8,533.072 22362.5,541C 22354.5,541.333 22346.5,541.667 22338.5,542C 22200.8,542.5 22063.2,542.667 21925.5,542.5C 21925.5,451.167 21925.5,359.833 21925.5,268.5 Z"/></g>
<g><path style="opacity:0.994" fill="#fefffe" d="M 17300.5,139.5 C 17376.2,137.605 17438,165.605 17486,223.5C 17637.7,452.5 17789.3,681.5 17941,910.5C 17968.2,941.592 18001.4,950.092 18040.5,936C 18069.1,922.359 18086,899.859 18091,868.5C 18091.3,645.833 18091.7,423.167 18092,200.5C 18096.6,170.875 18113.1,151.375 18141.5,142C 18179.1,134.878 18206.3,148.378 18223,182.5C 18225,187.677 18226.3,193.01 18227,198.5C 18227.7,423.833 18227.7,649.167 18227,874.5C 18216.8,966.055 18169.3,1029.56 18084.5,1065C 18007.3,1090.97 17935.9,1079.97 17870.5,1032C 17856,1020.46 17843.1,1007.3 17832,992.5C 17681,764.5 17530,536.5 17379,308.5C 17354,279.122 17322.8,269.622 17285.5,280C 17254.1,291.999 17235.3,314.499 17229,347.5C 17228,574.181 17227,800.848 17226,1027.5C 17216,1059.86 17194,1076.86 17160,1078.5C 17131.4,1077.88 17110.7,1064.88 17098,1039.5C 17095.6,1034.07 17093.9,1028.4 17093,1022.5C 17092.3,794.833 17092.3,567.167 17093,339.5C 17101.1,267.65 17135.3,212.15 17195.5,173C 17227.9,153.268 17262.9,142.102 17300.5,139.5 Z"/></g>
<g><path style="opacity:0.993" fill="#fefffe" d="M 20090.5,139.5 C 20185.7,136.211 20275.3,156.711 20359.5,201C 20385.3,215.418 20408.8,232.918 20430,253.5C 20439.6,263.466 20447.3,274.8 20453,287.5C 20461.3,323.32 20448.8,349.153 20415.5,365C 20394.4,371.963 20374.4,369.629 20355.5,358C 20284,290.036 20198.6,260.369 20099.5,269C 20016.7,270.701 19942.1,295.701 19875.5,344C 19803.4,402.264 19762.3,477.764 19752,570.5C 19742.4,682.092 19778.6,775.592 19860.5,851C 19933.7,910.732 20017.8,939.898 20113,938.5C 20167.4,939.404 20219.9,929.904 20270.5,910C 20303.7,896.779 20331.9,876.613 20355,849.5C 20364.6,837.317 20371.3,823.65 20375,808.5C 20376.6,788.21 20376.9,767.877 20376,747.5C 20347.7,764.046 20319.2,780.213 20290.5,796C 20260.6,806.486 20234.5,800.653 20212,778.5C 20189.9,749.596 20188.9,719.929 20209,689.5C 20216.1,680.866 20224.6,674.033 20234.5,669C 20289.7,637.92 20344.7,606.586 20399.5,575C 20405.3,572.075 20411.3,569.742 20417.5,568C 20456.2,557.954 20484.4,570.788 20502,606.5C 20503.3,610.42 20504.3,614.42 20505,618.5C 20505.7,683.167 20505.7,747.833 20505,812.5C 20497.8,887.194 20463.3,945.361 20401.5,987C 20354,1019.08 20302,1041.08 20245.5,1053C 20137.5,1077.39 20031.2,1071.73 19926.5,1036C 19800.7,990.19 19710.2,906.357 19655,784.5C 19625.7,709.088 19615.3,631.088 19624,550.5C 19644.5,397.273 19721,281.773 19853.5,204C 19927.3,163.29 20006.3,141.79 20090.5,139.5 Z"/></g>
<g><path style="opacity:0.993" fill="#fefffe" d="M 10435.5,209.5 C 10560.4,205.959 10675.4,237.459 10780.5,304C 10843.9,345.444 10895.1,398.61 10934,463.5C 10996.6,573.858 11007.6,689.192 10967,809.5C 10933.3,897.206 10878.5,968.706 10802.5,1024C 10698.9,1096.97 10583.4,1133.47 10456,1133.5C 10329.9,1133.58 10215.4,1097.75 10112.5,1026C 10044.6,976.781 9992.78,914.281 9957,838.5C 9918.48,750.389 9911.15,659.723 9935,566.5C 9959.37,482.573 10003.9,411.406 10068.5,353C 10156.1,276.225 10258.1,230.225 10374.5,215C 10394.9,212.469 10415.3,210.636 10435.5,209.5 Z M 10449.5,341.5 C 10547.2,340.68 10636.5,367.18 10717.5,421C 10772.3,458.82 10812.8,508.32 10839,569.5C 10876.2,676.1 10858.9,772.767 10787,859.5C 10731.2,921.528 10662.7,963.361 10581.5,985C 10473.5,1012.82 10368.2,1005.15 10265.5,962C 10198.4,932.877 10143.9,888.377 10102,828.5C 10048.5,745.457 10039.5,657.79 10075,565.5C 10097.3,514.569 10130.1,471.736 10173.5,437C 10243.5,383.083 10322.9,352.083 10411.5,344C 10424.3,343.178 10437,342.344 10449.5,341.5 Z"/></g>
<g><path style="opacity:0.992" fill="#fefffe" d="M 11244.5,242.5 C 11428.5,242.333 11612.5,242.5 11796.5,243C 11815.7,248.817 11829.2,260.984 11837,279.5C 11846.4,304.827 11843.4,328.494 11828,350.5C 11819.6,360.439 11809.1,366.939 11796.5,370C 11722.8,370.5 11649.2,370.667 11575.5,370.5C 11575.7,610.834 11575.5,851.167 11575,1091.5C 11573.4,1118.38 11559.9,1135.88 11534.5,1144C 11504,1150 11482.2,1139.16 11469,1111.5C 11466.6,1104.71 11465.2,1097.71 11465,1090.5C 11464.5,850.5 11464.3,610.5 11464.5,370.5C 11391.2,370.667 11317.8,370.5 11244.5,370C 11220,362.798 11205.1,346.632 11200,321.5C 11195.2,292.183 11204.4,268.35 11227.5,250C 11233,246.894 11238.7,244.394 11244.5,242.5 Z"/></g>
<g><path style="opacity:0.993" fill="#fefffe" d="M 12202.5,242.5 C 12341.5,242.333 12480.5,242.5 12619.5,243C 12708.4,252.553 12767.9,299.387 12798,383.5C 12815.9,437.835 12821.9,493.501 12816,550.5C 12811.9,606.243 12793.5,656.577 12761,701.5C 12724,745.077 12676.9,769.243 12619.5,774C 12502.5,774.5 12385.5,774.667 12268.5,774.5C 12268.7,879.501 12268.5,984.501 12268,1089.5C 12266.5,1110.36 12257.3,1126.86 12240.5,1139C 12203.1,1153.76 12176.2,1142.93 12160,1106.5C 12158.5,1101.59 12157.5,1096.59 12157,1091.5C 12156.3,828.5 12156.3,565.5 12157,302.5C 12159.9,273.022 12175,253.022 12202.5,242.5 Z M 12268.5,370.5 C 12377.5,370.333 12486.5,370.5 12595.5,371C 12654.2,369.722 12690,397.555 12703,454.5C 12708.9,487.509 12708.9,520.509 12703,553.5C 12696.8,586.714 12680,612.88 12652.5,632C 12634.8,641.842 12615.8,646.509 12595.5,646C 12486.5,646.5 12377.5,646.667 12268.5,646.5C 12268.5,554.5 12268.5,462.5 12268.5,370.5 Z"/></g>
<g><path style="opacity:0.99" fill="#fefffe" d="M 1961.5,455.5 C 1995.01,452.332 2019.18,465.666 2034,495.5C 2045.79,532.39 2035.29,560.89 2002.5,581C 1941.15,615.699 1879.81,650.366 1818.5,685C 1783,694.95 1755.5,684.45 1736,653.5C 1721.44,617.864 1729.6,588.697 1760.5,566C 1822.67,530.414 1885,495.08 1947.5,460C 1952.25,458.358 1956.92,456.858 1961.5,455.5 Z"/></g>
<g><path style="opacity:0.99" fill="#fefffe" d="M 8513.5,466.5 C 8550.06,466.69 8573.23,484.356 8583,519.5C 8587.29,546.294 8579.13,568.461 8558.5,586C 8491,624.92 8423.33,663.586 8355.5,702C 8324.94,712.891 8298.78,706.391 8277,682.5C 8262.53,661.774 8259.53,639.441 8268,615.5C 8272.23,605.601 8278.4,597.101 8286.5,590C 8352.67,551.414 8419,513.081 8485.5,475C 8494.44,470.406 8503.77,467.572 8513.5,466.5 Z"/></g>
<g><path style="opacity:0.99" fill="#fefffe" d="M 21301.5,486.5 C 21335.6,484.427 21359.7,498.761 21374,529.5C 21384.6,566.712 21373.4,595.212 21340.5,615C 21275.5,652 21210.5,689 21145.5,726C 21111,738.039 21082.8,729.539 21061,700.5C 21043.9,667.637 21048.4,638.137 21074.5,612C 21144.3,570.908 21214.7,530.575 21285.5,491C 21290.9,489.16 21296.2,487.66 21301.5,486.5 Z"/></g>
<g><path style="opacity:0.99" fill="#fefffe" d="M 6191.5,635.5 C 6222.52,632.426 6246.02,644.093 6262,670.5C 6274.19,698.482 6270.53,724.148 6251,747.5C 6245.28,752.611 6239.11,757.111 6232.5,761C 6176.5,792.667 6120.5,824.333 6064.5,856C 6031.52,866.339 6004.69,857.839 5984,830.5C 5969.02,803.611 5970.35,777.611 5988,752.5C 5994.16,745.349 6001.32,739.516 6009.5,735C 6062.17,705 6114.83,675 6167.5,645C 6175.19,640.721 6183.19,637.554 6191.5,635.5 Z"/></g>
<g><path style="opacity:0.99" fill="#fefffe" d="M 19018.5,648.5 C 19056.7,646.503 19081.9,663.503 19094,699.5C 19100.2,732.831 19089.1,758.331 19060.5,776C 19006,806.747 18951.7,837.747 18897.5,869C 18864,886.314 18834.2,881.481 18808,854.5C 18793.9,835.509 18789.9,814.509 18796,791.5C 18801.3,775.772 18810.8,763.272 18824.5,754C 18884.6,719.567 18944.9,685.567 19005.5,652C 19009.9,650.648 19014.3,649.481 19018.5,648.5 Z"/></g>
<g><path style="opacity:0.99" fill="#fefffe" d="M 16382.5,668.5 C 16422.3,667.474 16447.2,686.141 16457,724.5C 16460.9,754.942 16450,778.442 16424.5,795C 16365.7,828.587 16306.7,861.92 16247.5,895C 16214.7,904.922 16187.8,896.422 16167,869.5C 16150,839.531 16152.3,811.198 16174,784.5C 16178.9,779.565 16184.4,775.399 16190.5,772C 16248.7,738.747 16307,705.747 16365.5,673C 16371.3,671.314 16376.9,669.814 16382.5,668.5 Z"/></g>
</svg>
