<svg id="svg" version="1.1" xmlns="http://www.w3.org/2000/svg" xmlns:xlink="http://www.w3.org/1999/xlink" width="400" height="26.165757522435335" viewBox="0, 0, 400,26.165757522435335"><g id="svgg"><path id="path0" d="M106.310 2.384 C 104.827 3.010,103.167 5.235,103.167 6.596 C 103.167 6.721,102.979 7.233,102.750 7.734 C 102.521 8.235,102.333 8.766,102.333 8.914 C 102.333 9.062,102.213 9.416,102.066 9.700 C 101.919 9.984,101.589 10.824,101.333 11.567 C 100.623 13.623,100.491 13.987,99.976 15.288 C 99.206 17.236,99.340 18.043,100.472 18.269 C 101.192 18.413,101.743 18.015,102.044 17.132 C 102.501 15.789,102.693 15.250,103.276 13.667 C 103.597 12.796,103.936 11.821,104.030 11.500 C 104.124 11.179,104.380 10.521,104.600 10.037 C 104.820 9.553,105.000 9.085,105.000 8.997 C 105.000 8.909,105.181 8.367,105.402 7.793 C 105.624 7.220,105.850 6.545,105.905 6.295 C 106.060 5.590,106.941 4.693,107.599 4.569 C 108.849 4.335,109.633 5.105,110.320 7.242 C 110.525 7.879,110.806 8.619,110.944 8.887 C 111.083 9.154,111.295 9.721,111.417 10.145 C 111.538 10.569,111.861 11.517,112.135 12.250 C 112.409 12.983,112.764 13.958,112.924 14.417 C 113.084 14.875,113.383 15.662,113.588 16.167 C 113.793 16.671,114.009 17.292,114.068 17.548 C 114.361 18.811,116.500 18.468,116.500 17.159 C 116.500 16.879,116.350 16.340,116.167 15.961 C 115.983 15.581,115.833 15.174,115.833 15.055 C 115.833 14.937,115.651 14.370,115.428 13.795 C 115.000 12.689,114.225 10.584,113.787 9.333 C 112.149 4.655,111.930 4.150,111.217 3.416 C 109.976 2.139,107.917 1.706,106.310 2.384 M65.875 2.498 C 65.214 2.901,65.177 3.373,65.680 4.978 C 66.193 6.612,66.934 9.050,67.436 10.750 C 67.679 11.575,68.085 12.887,68.338 13.667 C 68.591 14.446,68.839 15.316,68.890 15.599 C 69.147 17.048,70.511 18.177,72.143 18.292 C 74.770 18.478,76.068 17.311,76.845 14.066 C 76.952 13.617,77.209 12.725,77.416 12.083 C 77.749 11.047,78.007 10.198,78.935 7.083 C 79.477 5.261,79.922 4.667,80.745 4.667 C 81.233 4.667,81.955 5.493,82.160 6.287 C 82.273 6.725,82.580 7.758,82.842 8.583 C 83.104 9.408,83.518 10.758,83.763 11.583 C 84.008 12.408,84.387 13.608,84.605 14.250 C 84.823 14.892,85.001 15.563,85.001 15.741 C 84.996 17.745,88.947 19.092,90.810 17.723 C 91.603 17.139,92.333 16.240,92.333 15.848 C 92.333 15.708,92.516 15.029,92.739 14.338 C 93.216 12.859,93.940 10.511,94.564 8.417 C 94.810 7.592,95.239 6.229,95.517 5.389 C 96.163 3.439,96.124 2.861,95.317 2.429 C 94.454 1.967,93.679 2.437,93.364 3.614 C 93.246 4.056,92.971 4.979,92.754 5.667 C 92.536 6.354,92.324 7.104,92.282 7.333 C 92.241 7.563,92.019 8.313,91.789 9.000 C 91.377 10.234,90.621 12.700,90.308 13.833 C 89.917 15.245,89.646 15.655,89.027 15.771 C 87.810 16.000,87.615 15.696,86.438 11.750 C 85.957 10.135,85.302 8.025,84.500 5.500 C 83.828 3.385,83.041 2.627,81.151 2.274 C 79.658 1.994,77.000 3.560,77.000 4.719 C 77.000 4.905,76.777 5.738,76.505 6.570 C 76.232 7.402,75.808 8.758,75.562 9.583 C 75.316 10.408,74.901 11.721,74.640 12.500 C 74.379 13.279,74.165 14.067,74.165 14.250 C 74.165 15.317,72.960 16.202,72.079 15.781 C 71.503 15.507,71.117 14.444,69.254 8.000 C 69.002 7.129,68.579 5.778,68.315 4.997 C 68.050 4.216,67.833 3.416,67.833 3.219 C 67.833 2.445,66.666 2.016,65.875 2.498 M121.056 2.434 C 120.281 2.817,120.231 3.315,120.799 4.987 C 121.066 5.773,121.486 7.092,121.733 7.917 C 122.592 10.794,123.038 12.260,123.509 13.750 C 123.770 14.575,124.022 15.442,124.070 15.678 C 124.118 15.913,124.310 16.281,124.495 16.495 C 124.681 16.709,124.833 16.935,124.833 16.996 C 124.833 17.057,125.145 17.312,125.526 17.561 C 126.996 18.523,129.451 18.563,130.618 17.644 C 131.961 16.586,131.959 16.588,133.487 11.667 C 133.785 10.704,134.182 9.467,134.367 8.917 C 134.553 8.367,134.768 7.617,134.846 7.250 C 134.923 6.883,135.132 6.208,135.310 5.750 C 136.032 3.890,135.978 2.641,135.161 2.356 C 134.202 2.022,133.696 2.416,133.266 3.833 C 133.112 4.337,132.813 5.313,132.600 6.000 C 132.387 6.688,131.970 8.037,131.675 9.000 C 131.379 9.963,131.022 11.088,130.882 11.500 C 130.741 11.912,130.533 12.625,130.419 13.083 C 129.962 14.917,129.477 15.617,128.570 15.749 C 127.137 15.959,126.487 15.331,125.984 13.250 C 125.873 12.792,125.569 11.811,125.308 11.071 C 125.047 10.331,124.833 9.619,124.833 9.488 C 124.833 9.357,124.678 8.843,124.489 8.345 C 124.300 7.848,124.084 7.135,124.008 6.762 C 123.933 6.389,123.678 5.521,123.443 4.833 C 123.207 4.146,122.976 3.395,122.930 3.165 C 122.774 2.382,121.874 2.031,121.056 2.434 M144.250 2.276 C 143.153 2.537,142.667 2.801,141.971 3.517 C 140.976 4.540,140.961 4.659,141.030 11.015 L 141.083 15.946 141.555 16.626 C 141.815 17.001,142.340 17.519,142.722 17.778 L 143.417 18.250 148.197 18.303 C 153.596 18.363,153.667 18.347,153.667 17.095 C 153.667 15.927,153.296 15.834,148.641 15.831 C 142.884 15.828,143.333 16.298,143.333 10.271 C 143.333 4.332,143.041 4.667,148.230 4.667 L 151.809 4.667 152.155 4.228 C 152.604 3.656,152.591 3.291,152.098 2.718 L 151.696 2.250 148.140 2.223 C 146.184 2.208,144.433 2.232,144.250 2.276 M368.405 2.468 C 366.069 3.441,365.917 3.928,365.917 10.417 C 365.917 18.535,366.040 18.667,373.650 18.667 C 378.551 18.667,378.833 18.598,378.833 17.411 C 378.833 16.211,378.655 16.167,373.863 16.167 C 367.862 16.167,368.338 16.662,368.338 10.417 C 368.338 4.236,367.974 4.667,373.191 4.667 C 377.307 4.667,377.500 4.614,377.500 3.491 C 377.500 2.198,377.387 2.165,372.958 2.176 C 369.709 2.184,368.974 2.231,368.405 2.468 M331.841 2.565 C 330.538 2.984,328.500 5.975,328.500 7.470 C 328.500 7.573,328.313 8.067,328.083 8.568 C 327.854 9.069,327.667 9.572,327.667 9.686 C 327.667 9.877,327.274 10.940,326.228 13.583 C 326.010 14.133,325.833 14.682,325.833 14.802 C 325.833 14.923,325.637 15.448,325.397 15.969 C 324.742 17.394,324.698 18.046,325.222 18.571 C 326.118 19.467,327.221 18.882,327.713 17.250 C 327.852 16.792,328.241 15.667,328.580 14.750 C 328.918 13.833,329.255 12.858,329.329 12.583 C 329.402 12.308,329.659 11.650,329.898 11.120 C 330.137 10.591,330.333 10.049,330.333 9.917 C 330.333 9.784,330.521 9.252,330.750 8.734 C 330.979 8.216,331.167 7.679,331.167 7.541 C 331.167 6.785,332.198 5.210,332.829 5.001 C 334.263 4.528,335.211 5.176,335.879 7.083 C 336.104 7.725,336.385 8.512,336.503 8.833 C 336.622 9.154,336.885 9.867,337.088 10.417 C 337.291 10.967,337.554 11.716,337.671 12.082 C 337.788 12.448,338.000 13.011,338.141 13.332 C 338.283 13.654,338.490 14.217,338.601 14.583 C 339.846 18.691,340.949 19.976,341.982 18.525 C 342.476 17.831,342.414 17.496,341.168 14.167 C 340.876 13.387,340.538 12.412,340.417 12.000 C 340.296 11.588,340.028 10.875,339.822 10.417 C 339.615 9.958,339.390 9.358,339.321 9.083 C 337.926 3.551,335.461 1.402,331.841 2.565 M352.333 2.529 C 351.019 2.690,348.600 3.667,348.431 4.105 C 348.383 4.231,348.246 4.333,348.126 4.333 C 347.485 4.333,345.884 6.845,345.482 8.481 C 344.121 14.024,348.036 18.781,353.917 18.730 C 355.597 18.715,357.714 18.226,358.491 17.673 C 358.753 17.486,359.013 17.333,359.069 17.333 C 360.530 17.333,361.808 11.459,360.607 10.259 C 360.044 9.695,359.316 9.718,358.250 10.333 C 357.792 10.598,357.117 10.977,356.750 11.176 C 355.694 11.749,355.333 12.157,355.333 12.779 C 355.333 14.004,356.822 14.398,358.042 13.495 L 358.550 13.120 358.433 13.851 C 358.317 14.579,357.504 15.667,357.076 15.667 C 356.971 15.667,356.629 15.795,356.317 15.951 C 355.336 16.443,352.988 16.441,351.599 15.947 C 350.438 15.534,348.333 13.916,348.333 13.438 C 348.333 13.323,348.192 12.934,348.019 12.573 C 346.903 10.241,347.958 7.217,350.405 5.739 C 352.526 4.457,356.187 4.585,357.699 5.994 C 359.184 7.378,360.889 5.827,359.525 4.334 C 358.643 3.369,355.178 2.182,353.750 2.356 C 353.658 2.367,353.021 2.445,352.333 2.529 M383.679 2.772 C 383.341 3.202,383.333 3.377,383.333 10.665 L 383.333 18.118 383.742 18.559 C 384.256 19.114,385.017 19.147,385.494 18.635 C 385.811 18.295,385.833 18.060,385.833 15.135 L 385.833 12.000 388.800 12.000 L 391.767 12.000 392.701 13.875 C 393.215 14.906,393.882 16.275,394.182 16.917 C 395.098 18.869,395.646 19.278,396.655 18.756 C 397.486 18.326,397.539 17.704,396.859 16.357 C 395.195 13.063,394.657 11.954,394.701 11.910 C 394.729 11.883,395.093 11.723,395.511 11.555 C 399.465 9.967,399.156 3.637,395.071 2.573 C 394.368 2.390,392.955 2.333,389.087 2.333 L 384.024 2.333 383.679 2.772 M182.389 3.674 C 179.982 4.150,176.500 5.961,176.500 6.738 C 176.500 6.838,176.363 7.005,176.196 7.110 C 176.029 7.214,175.608 7.883,175.260 8.596 C 173.665 11.866,175.093 16.643,178.137 18.219 C 178.382 18.346,178.808 18.569,179.083 18.715 C 186.664 22.732,195.956 16.167,192.926 8.933 C 192.443 7.779,190.171 5.167,189.651 5.167 C 189.537 5.167,189.315 5.051,189.159 4.910 C 188.132 3.980,184.341 3.288,182.389 3.674 M197.429 4.428 C 196.214 5.643,197.019 6.406,199.573 6.463 L 201.667 6.510 201.667 12.827 C 201.667 20.117,201.655 20.040,202.791 19.967 L 203.583 19.917 203.627 13.208 L 203.670 6.500 205.831 6.500 L 207.991 6.500 208.255 5.990 C 208.593 5.337,208.342 4.419,207.785 4.270 C 206.855 4.021,197.696 4.161,197.429 4.428 M214.181 4.486 C 213.839 4.827,213.833 4.956,213.833 12.094 C 213.833 20.206,213.805 20.000,214.917 20.000 C 215.950 20.000,216.000 19.839,216.000 16.511 L 216.000 13.667 219.276 13.667 C 222.416 13.667,222.587 13.650,223.424 13.254 C 226.200 11.940,226.425 6.518,223.778 4.722 L 223.083 4.250 218.806 4.194 C 214.654 4.140,214.519 4.148,214.181 4.486 M394.353 5.026 C 396.118 5.554,396.221 8.146,394.513 9.038 L 393.629 9.500 389.731 9.500 L 385.833 9.500 385.833 7.167 L 385.833 4.833 389.772 4.833 C 392.266 4.833,393.947 4.904,394.353 5.026 M185.750 6.230 C 191.008 7.655,192.733 12.739,188.960 15.692 C 188.569 15.997,188.225 16.304,188.194 16.374 C 188.164 16.443,188.047 16.500,187.934 16.500 C 187.821 16.500,187.396 16.669,186.990 16.875 C 185.062 17.852,181.037 17.301,179.159 15.803 C 174.174 11.827,179.242 4.466,185.750 6.230 M221.854 6.603 C 223.541 6.883,224.188 9.253,222.947 10.608 L 222.360 11.250 219.180 11.302 L 216.000 11.354 216.000 8.927 L 216.000 6.500 218.625 6.502 C 220.069 6.503,221.522 6.549,221.854 6.603 M148.500 8.667 C 147.904 9.015,147.117 9.464,146.750 9.665 C 144.469 10.917,145.173 13.205,147.500 12.101 C 148.425 11.662,149.967 10.770,150.193 10.542 C 150.307 10.427,150.495 10.333,150.611 10.333 C 151.342 10.333,151.353 8.776,150.625 8.332 C 149.915 7.899,149.778 7.920,148.500 8.667 M373.417 9.131 C 370.726 10.579,370.333 10.899,370.333 11.644 C 370.333 11.990,370.486 12.266,370.846 12.569 C 371.557 13.167,371.460 13.185,373.417 12.082 C 373.875 11.823,374.512 11.467,374.833 11.290 C 376.165 10.556,376.530 9.948,376.146 9.105 C 375.781 8.304,374.938 8.312,373.417 9.131 M108.221 11.382 C 106.520 12.282,105.295 13.022,105.128 13.250 C 104.654 13.894,105.391 15.167,106.237 15.167 C 106.560 15.167,108.332 14.243,109.708 13.357 C 111.384 12.279,109.999 10.441,108.221 11.382 M333.915 11.503 C 333.857 11.597,333.459 11.860,333.030 12.088 C 330.859 13.244,330.667 13.419,330.667 14.253 C 330.667 15.788,332.852 15.687,334.680 14.067 C 334.825 13.938,335.028 13.833,335.132 13.833 C 335.799 13.833,336.196 12.612,335.807 11.758 C 335.601 11.307,334.156 11.113,333.915 11.503 " stroke="none" fill="#fcfcfc" fill-rule="evenodd"></path><path id="path1" d="M51.250 2.109 C 49.271 2.367,46.706 3.312,46.067 4.018 C 45.910 4.192,45.729 4.333,45.664 4.333 C 45.502 4.333,44.333 5.448,44.333 5.603 C 44.333 5.672,44.191 5.883,44.016 6.073 C 41.406 8.902,43.034 15.230,46.833 17.026 C 48.655 17.886,49.102 18.042,50.205 18.198 C 54.326 18.783,57.543 17.678,60.125 14.789 C 61.666 13.065,62.081 9.543,61.012 7.250 C 60.130 5.356,57.028 2.675,55.706 2.664 C 55.547 2.663,55.117 2.560,54.750 2.435 C 54.026 2.188,52.052 2.005,51.250 2.109 M2.541 2.473 C 1.559 2.820,1.166 3.124,0.476 4.067 L -0.000 4.717 0.003 11.233 C 0.004 14.818,0.062 17.840,0.133 17.950 C 0.383 18.345,1.553 18.395,2.004 18.030 L 2.417 17.697 2.507 11.473 C 2.557 8.050,2.613 5.233,2.632 5.213 C 2.772 5.062,3.701 4.667,3.915 4.667 C 4.213 4.667,5.500 5.949,5.500 6.246 C 5.500 6.351,5.633 6.583,5.796 6.760 C 5.959 6.938,6.411 7.591,6.801 8.213 C 7.191 8.834,7.620 9.471,7.754 9.629 C 7.889 9.787,8.317 10.417,8.707 11.028 C 9.098 11.639,9.735 12.604,10.125 13.172 C 10.515 13.740,10.833 14.242,10.833 14.287 C 10.833 14.332,11.058 14.653,11.333 15.000 C 11.608 15.347,11.833 15.700,11.833 15.784 C 11.833 15.868,11.970 16.083,12.136 16.262 C 12.303 16.441,12.509 16.711,12.594 16.863 C 13.855 19.098,18.085 18.644,19.154 16.160 C 19.649 15.010,19.697 3.054,19.208 2.634 C 18.723 2.217,18.343 2.158,17.747 2.407 L 17.178 2.645 17.131 8.837 L 17.083 15.029 16.596 15.448 C 16.116 15.861,14.841 15.909,14.703 15.518 C 14.677 15.445,14.265 14.804,13.786 14.093 C 13.308 13.382,12.839 12.676,12.745 12.525 C 12.568 12.243,11.824 11.128,10.714 9.483 C 10.367 8.969,10.008 8.436,9.917 8.299 C 9.243 7.289,8.649 6.391,7.846 5.167 C 6.066 2.454,4.643 1.731,2.541 2.473 M28.500 2.435 C 26.081 3.084,25.805 3.942,25.868 10.605 C 25.924 16.521,25.931 16.554,27.389 17.625 L 28.241 18.250 33.024 18.305 C 38.427 18.367,38.500 18.351,38.500 17.095 C 38.500 15.904,38.214 15.833,33.403 15.833 C 29.185 15.833,29.185 15.833,28.718 15.431 L 28.250 15.029 28.197 10.723 C 28.119 4.338,27.865 4.667,32.893 4.667 C 36.552 4.667,37.082 4.572,37.211 3.897 C 37.358 3.129,37.148 2.642,36.566 2.399 C 35.769 2.066,29.774 2.093,28.500 2.435 M249.330 2.566 C 247.757 2.894,246.559 4.226,246.232 6.013 C 246.174 6.327,245.958 7.108,245.750 7.750 C 245.543 8.392,245.132 9.742,244.837 10.750 C 244.542 11.758,244.130 13.146,243.922 13.833 C 242.949 17.041,242.833 17.466,242.833 17.850 C 242.833 18.594,243.271 19.000,244.072 19.000 C 245.060 19.000,245.153 18.814,246.569 14.000 C 246.799 13.221,247.223 11.796,247.513 10.833 C 247.803 9.871,248.229 8.446,248.459 7.667 C 249.229 5.067,249.488 4.788,250.844 5.086 C 251.406 5.209,251.404 5.205,252.085 7.417 C 252.339 8.242,252.699 9.367,252.884 9.917 C 253.069 10.467,253.276 11.179,253.343 11.500 C 253.409 11.821,253.653 12.608,253.883 13.250 C 254.113 13.892,254.349 14.642,254.407 14.917 C 254.952 17.510,256.493 19.000,258.627 19.000 C 260.261 19.000,262.141 17.690,262.435 16.347 C 262.487 16.110,262.700 15.354,262.908 14.667 C 263.116 13.979,263.532 12.592,263.833 11.583 C 264.133 10.575,264.556 9.220,264.773 8.572 C 264.989 7.924,265.167 7.263,265.167 7.103 C 265.167 6.513,265.857 5.209,266.269 5.022 C 267.621 4.405,267.955 4.856,269.213 9.000 C 269.449 9.779,269.884 11.204,270.179 12.167 C 271.253 15.673,271.483 16.434,271.747 17.353 C 272.221 18.996,273.213 19.507,274.091 18.559 C 274.696 17.907,274.726 18.065,272.838 12.000 C 272.539 11.037,272.125 9.688,271.919 9.000 C 270.297 3.590,269.980 3.013,268.355 2.526 C 265.790 1.758,263.809 2.853,262.968 5.503 C 262.352 7.442,260.855 12.433,260.470 13.833 C 260.139 15.035,259.613 16.183,259.323 16.339 C 258.466 16.798,257.300 16.026,257.086 14.859 C 257.025 14.524,256.804 13.725,256.594 13.083 C 256.385 12.442,255.968 11.129,255.667 10.167 C 255.366 9.204,254.976 7.985,254.800 7.457 C 254.625 6.929,254.373 6.082,254.241 5.576 C 253.621 3.194,251.767 2.058,249.330 2.566 M285.462 2.585 C 283.813 3.191,282.432 5.463,281.512 9.083 C 281.442 9.358,281.185 10.017,280.942 10.547 C 280.699 11.076,280.500 11.600,280.500 11.709 C 280.500 11.918,279.949 13.448,279.164 15.417 C 278.438 17.238,278.368 18.050,278.892 18.573 C 279.737 19.419,280.679 18.938,281.237 17.375 C 281.393 16.940,281.703 16.094,281.927 15.496 C 282.150 14.898,282.333 14.319,282.333 14.209 C 282.333 14.100,282.513 13.614,282.733 13.130 C 282.953 12.646,283.210 11.987,283.304 11.667 C 283.546 10.839,284.597 7.943,284.792 7.566 C 284.882 7.392,285.006 6.987,285.067 6.667 C 285.337 5.241,286.681 4.516,288.101 5.029 C 288.639 5.224,289.667 6.904,289.667 7.589 C 289.667 7.733,289.828 8.204,290.025 8.634 C 290.222 9.065,290.441 9.642,290.511 9.917 C 290.581 10.192,290.903 11.129,291.226 12.000 C 291.549 12.871,291.943 13.958,292.100 14.417 C 292.258 14.875,292.553 15.662,292.757 16.167 C 292.961 16.671,293.179 17.308,293.242 17.583 C 293.575 19.032,295.256 19.451,295.815 18.224 C 296.078 17.646,296.051 17.423,295.596 16.428 C 295.373 15.942,295.104 15.218,294.996 14.819 C 294.889 14.420,294.671 13.792,294.513 13.422 C 294.355 13.052,294.095 12.375,293.936 11.917 C 293.777 11.458,293.383 10.371,293.060 9.500 C 292.736 8.629,292.413 7.683,292.342 7.398 C 292.271 7.113,292.014 6.447,291.773 5.919 C 291.531 5.392,291.333 4.858,291.333 4.733 C 291.333 4.304,289.596 2.759,288.869 2.542 C 287.968 2.272,286.254 2.294,285.462 2.585 M303.571 2.567 C 302.435 2.843,301.570 3.557,301.074 4.630 L 300.667 5.510 300.667 11.846 L 300.667 18.182 301.076 18.591 C 301.579 19.094,302.305 19.123,302.802 18.660 C 303.164 18.323,303.167 18.280,303.167 12.235 C 303.167 5.619,303.209 5.288,304.087 5.067 C 304.695 4.915,305.666 5.142,305.802 5.468 C 305.960 5.849,307.175 7.696,307.448 7.970 C 307.568 8.091,307.667 8.298,307.667 8.429 C 307.667 8.560,307.730 8.667,307.807 8.667 C 307.884 8.667,308.034 8.835,308.142 9.042 C 308.389 9.517,308.586 9.815,310.417 12.496 C 311.242 13.704,312.022 14.892,312.151 15.138 C 312.279 15.383,312.437 15.621,312.501 15.667 C 312.565 15.713,312.827 16.086,313.084 16.496 C 313.342 16.907,313.653 17.343,313.776 17.467 C 313.899 17.590,314.000 17.754,314.000 17.831 C 314.000 17.909,314.495 18.213,315.099 18.508 C 317.291 19.576,319.593 18.696,320.532 16.431 C 320.970 15.375,320.977 3.381,320.540 2.842 C 320.045 2.230,318.619 2.369,318.437 3.047 C 318.382 3.250,318.337 6.075,318.336 9.323 C 318.333 15.884,318.285 16.171,317.135 16.424 C 316.319 16.603,316.275 16.556,313.877 12.983 C 313.532 12.469,313.175 11.938,313.083 11.802 C 312.992 11.667,312.623 11.112,312.264 10.570 C 311.905 10.027,311.548 9.558,311.472 9.528 C 311.396 9.497,311.333 9.371,311.333 9.248 C 311.333 9.125,311.235 8.925,311.114 8.804 C 310.912 8.601,309.695 6.800,309.500 6.417 C 309.424 6.266,308.628 5.081,307.878 4.000 C 307.719 3.771,307.498 3.525,307.386 3.455 C 307.274 3.384,307.061 3.204,306.912 3.055 C 306.673 2.816,305.031 2.319,304.583 2.350 C 304.492 2.356,304.036 2.454,303.571 2.567 M54.763 4.980 C 60.126 6.706,60.640 12.504,55.667 15.166 L 54.583 15.745 52.248 15.748 L 49.912 15.750 48.771 15.167 C 45.289 13.388,44.240 10.460,46.052 7.583 C 46.348 7.114,47.415 6.000,47.569 6.000 C 47.640 6.000,47.882 5.855,48.107 5.678 C 48.452 5.407,49.726 4.946,51.083 4.602 C 51.708 4.444,53.747 4.653,54.763 4.980 M33.583 8.312 C 30.657 9.932,30.333 10.193,30.333 10.931 C 30.333 12.055,31.634 12.512,32.667 11.750 C 32.977 11.521,33.297 11.333,33.377 11.333 C 33.458 11.333,33.850 11.108,34.250 10.833 C 34.650 10.558,35.052 10.333,35.143 10.333 C 35.426 10.333,36.000 9.476,36.000 9.053 C 36.000 7.940,34.878 7.596,33.583 8.312 M286.917 12.269 C 286.367 12.582,285.729 12.917,285.500 13.013 C 284.360 13.492,283.875 14.509,284.417 15.283 C 284.938 16.028,285.680 15.942,287.455 14.932 C 289.612 13.705,289.660 13.660,289.664 12.875 C 289.670 11.597,288.536 11.347,286.917 12.269 " stroke="none" fill="#1c1c1c" fill-rule="evenodd"></path><path id="path2" d="" stroke="none" fill="#c41008c" fill-rule="evenodd"></path><path id="path3" d="" stroke="none" fill="#c41008c" fill-rule="evenodd"></path><path id="path4" d="" stroke="none" fill="#c41008c" fill-rule="evenodd"></path></g></svg>