<svg xmlns="http://www.w3.org/2000/svg" width="2306" height="639" viewBox="0 0 2306 639" version="1.1"><path d="M 1482.928 211.530 C 1435.921 218.858, 1399.111 244.712, 1383.800 281.154 C 1374.785 302.611, 1374.824 331.303, 1383.898 353.099 C 1395.368 380.652, 1421.682 403.253, 1455.445 414.551 C 1475.815 421.367, 1482.784 422.384, 1509.500 422.443 C 1535.352 422.500, 1542.582 421.656, 1560.500 416.487 C 1591.533 407.536, 1612.166 390.216, 1616.023 369.880 C 1616.560 367.046, 1617 354.874, 1617 342.831 C 1617 318.153, 1616.562 316.057, 1610.435 311.382 L 1606.658 308.500 1562.079 308.250 L 1517.500 308 1513.594 310.250 C 1508.018 313.462, 1505.500 317.273, 1505.500 322.500 C 1505.500 327.732, 1508.025 331.549, 1513.594 334.734 C 1517.409 336.915, 1518.241 336.967, 1549.250 336.984 L 1581 337 1581 350.540 C 1581 366.337, 1580.042 369.153, 1572.362 375.912 C 1562.018 385.018, 1542.932 391.426, 1521.677 392.929 C 1469.418 396.624, 1427.678 374.472, 1415.352 336.500 C 1413.243 330.003, 1412.749 326.527, 1412.724 318 C 1412.687 305.342, 1414.582 296.774, 1419.716 286.392 C 1431.316 262.932, 1455.308 247.054, 1487.557 241.496 C 1500.253 239.307, 1525.397 239.225, 1536.066 241.336 C 1547.377 243.574, 1559.133 248.508, 1569.197 255.240 C 1579.991 262.459, 1584.211 263.662, 1591.406 261.570 C 1600.734 258.859, 1605.781 250.556, 1602.415 243.463 C 1596.381 230.745, 1565.541 215.984, 1535.773 211.564 C 1522.897 209.652, 1495.090 209.634, 1482.928 211.530 M 639.164 214.550 C 625.481 219.211, 613.357 229.159, 607.262 240.726 C 605.589 243.902, 591.570 281.610, 576.110 324.521 C 546.425 406.913, 546.025 408.280, 549.549 415.094 C 554.110 423.914, 569.697 424.588, 575.559 416.219 C 576.356 415.082, 589.605 379.221, 605.003 336.528 C 620.400 293.835, 633.644 257.655, 634.434 256.127 C 636.376 252.372, 643.402 246.156, 647.860 244.249 C 652.472 242.277, 662.401 242.293, 667.140 244.280 C 671.575 246.139, 678.612 252.349, 680.566 256.127 C 681.356 257.655, 694.600 293.835, 709.997 336.528 C 725.395 379.221, 738.644 415.082, 739.441 416.219 C 742.183 420.134, 746.216 421.987, 752 421.990 C 758.454 421.993, 763.121 419.601, 765.451 415.094 C 768.969 408.291, 768.565 406.913, 738.896 324.534 C 723.439 281.615, 709.420 243.902, 707.744 240.726 C 701.590 229.068, 689.442 219.148, 675.652 214.519 C 664.996 210.942, 649.717 210.955, 639.164 214.550 M 1905.241 214.995 C 1903.448 216.088, 1901.088 218.448, 1899.995 220.241 C 1898.049 223.433, 1898.008 225.463, 1898.010 318.500 C 1898.013 409.882, 1898.085 413.609, 1899.898 416.359 C 1903.101 421.218, 1906.798 422.986, 1913.765 422.993 C 1919.455 422.999, 1920.358 422.699, 1923.609 419.720 C 1926.172 417.370, 1927.433 415.171, 1928.051 411.970 C 1928.525 409.511, 1928.932 390.957, 1928.956 370.738 L 1929 333.976 1966.701 334.238 L 2004.403 334.500 2023.951 375.175 C 2034.703 397.546, 2044.399 416.830, 2045.498 418.027 C 2049.014 421.861, 2052.894 423.256, 2058.696 422.775 C 2063.118 422.409, 2064.678 421.735, 2067.551 418.950 C 2071.428 415.193, 2073.422 409.528, 2072.359 405.292 C 2071.974 403.762, 2064.087 387.036, 2054.830 368.124 C 2045.574 349.211, 2038 333.571, 2038 333.369 C 2038 333.166, 2039.013 332.991, 2040.250 332.979 C 2044.101 332.943, 2055.485 328.450, 2060.541 324.972 C 2070.802 317.912, 2078.553 306.964, 2082.468 294 C 2085.075 285.371, 2085.633 266.944, 2083.570 257.671 C 2078.654 235.572, 2063.391 220.659, 2039.938 215.037 C 2031.942 213.120, 2028.276 213.014, 1970 213.011 C 1910.390 213.008, 1908.400 213.069, 1905.241 214.995 M 391.977 216.276 C 379.750 220.445, 369.712 228.755, 363.825 239.581 C 361.213 244.386, 343.784 300.607, 339.980 316.500 C 338.926 320.900, 334.028 337.964, 329.093 354.420 C 319.129 387.652, 318.698 388.473, 309.478 391.804 C 302.626 394.279, 297.121 393.121, 292.161 388.161 C 288.717 384.717, 287.871 382.484, 279.597 354.984 C 274.718 338.768, 270.263 324.375, 269.697 323 C 269.131 321.625, 268.591 320.275, 268.497 320 C 268.404 319.725, 268.032 318.825, 267.671 318 C 267.310 317.175, 262.129 300.525, 256.158 281 C 250.186 261.475, 244.063 243.065, 242.552 240.089 C 230.665 216.686, 196.747 208.482, 173.613 223.414 C 166.920 227.735, 159.823 235.072, 156.586 241.019 C 154.134 245.524, 136.622 302.054, 133.367 315.972 C 132.535 319.532, 126.261 341.219, 119.427 364.167 C 111.883 389.495, 107.001 407.582, 107.004 410.195 C 107.011 418.756, 113.542 424.993, 122.500 424.993 C 128.014 424.993, 132.881 422.637, 135.442 418.729 C 136.888 416.522, 163.999 327.894, 164.572 323.500 C 164.716 322.400, 164.908 321.500, 165 321.500 C 165.092 321.500, 165.285 320.600, 165.431 319.500 C 166.072 314.634, 183.429 258.177, 185.167 255.300 C 188.185 250.306, 193.514 247.527, 199.996 247.568 C 206.263 247.607, 211.149 249.771, 213.674 253.625 C 214.605 255.046, 218.880 267.749, 223.174 281.854 C 227.469 295.960, 232.560 312, 234.488 317.500 C 236.417 323, 242.505 342.350, 248.017 360.500 C 253.529 378.650, 259.145 395.750, 260.498 398.500 C 265.981 409.646, 277.634 419.313, 290.181 423.123 C 301.302 426.501, 316.780 424.388, 329.211 417.793 C 336.389 413.985, 345.349 404.678, 348.478 397.781 C 350.764 392.741, 371.035 326.672, 371.574 322.500 C 371.717 321.400, 371.904 320.500, 371.991 320.500 C 372.078 320.500, 372.352 319.389, 372.602 318.030 C 373.215 314.683, 388.647 262.565, 390.584 257.297 C 395.430 244.118, 414.206 241.228, 421.605 252.521 C 422.548 253.959, 427.295 268.405, 432.153 284.621 C 437.011 300.838, 441.388 314.870, 441.879 315.803 C 442.370 316.736, 449.379 339.550, 457.453 366.500 C 465.528 393.450, 472.803 416.534, 473.621 417.798 C 476.103 421.631, 481.012 423.993, 486.500 423.993 C 495.512 423.993, 501.989 417.761, 501.996 409.084 C 502 404.416, 478.360 322.776, 476.828 322.165 C 476.366 321.980, 476.254 321.398, 476.580 320.871 C 476.906 320.344, 476.732 319.370, 476.193 318.706 C 475.654 318.043, 470.384 301.300, 464.481 281.500 C 458.464 261.320, 452.375 242.868, 450.624 239.511 C 444.706 228.165, 431.499 217.964, 419 215.085 C 411.167 213.281, 399.215 213.808, 391.977 216.276 M 1224.164 216.550 C 1210.481 221.211, 1198.357 231.159, 1192.262 242.726 C 1190.589 245.902, 1176.570 283.610, 1161.110 326.521 C 1131.425 408.913, 1131.025 410.280, 1134.549 417.094 C 1139.110 425.914, 1154.697 426.588, 1160.559 418.219 C 1161.356 417.082, 1174.605 381.221, 1190.003 338.528 C 1205.400 295.835, 1218.644 259.655, 1219.434 258.127 C 1221.376 254.372, 1228.402 248.156, 1232.860 246.249 C 1237.472 244.277, 1247.401 244.293, 1252.140 246.280 C 1256.575 248.139, 1263.612 254.349, 1265.566 258.127 C 1266.356 259.655, 1279.600 295.835, 1294.997 338.528 C 1310.395 381.221, 1323.644 417.082, 1324.441 418.219 C 1327.183 422.134, 1331.216 423.987, 1337 423.990 C 1343.454 423.993, 1348.121 421.601, 1350.451 417.094 C 1353.969 410.291, 1353.565 408.913, 1323.896 326.534 C 1308.439 283.615, 1294.420 245.902, 1292.744 242.726 C 1286.590 231.068, 1274.442 221.148, 1260.652 216.519 C 1249.996 212.942, 1234.717 212.955, 1224.164 216.550 M 864.893 217.313 C 856.882 220.216, 850.990 224.153, 844.968 230.627 C 839.157 236.876, 836.670 241.010, 834.085 248.718 C 832.042 254.812, 832 256.515, 832.004 333.718 C 832.007 410.566, 832.056 412.580, 833.995 415.759 C 839.711 425.135, 853.724 425.453, 859.696 416.343 C 861.384 413.767, 861.532 408.633, 862 336.545 C 862.491 260.844, 862.536 259.430, 864.589 255.500 C 869.432 246.227, 880.676 242.863, 889.747 247.972 C 893.548 250.113, 899.408 258.527, 945.568 328.112 C 981.627 382.471, 998.631 407.252, 1002.091 410.489 C 1004.813 413.035, 1010.449 416.737, 1014.616 418.716 C 1021.309 421.894, 1023.342 422.369, 1032.046 422.788 C 1047.408 423.528, 1057.535 420.028, 1067.957 410.379 C 1075.018 403.842, 1079.135 397.622, 1081.922 389.282 C 1083.956 383.195, 1084 381.390, 1083.996 304.282 C 1083.993 227.434, 1083.944 225.420, 1082.005 222.241 C 1076.289 212.865, 1062.276 212.547, 1056.304 221.657 C 1054.616 224.233, 1054.468 229.367, 1054 301.455 C 1053.509 377.156, 1053.464 378.570, 1051.411 382.500 C 1046.570 391.770, 1035.324 395.137, 1026.259 390.031 C 1022.466 387.894, 1016.573 379.434, 970.445 309.898 C 934.345 255.479, 917.385 230.763, 913.916 227.518 C 911.190 224.968, 905.517 221.247, 901.309 219.249 C 894.190 215.868, 892.889 215.591, 882.579 215.267 C 872.864 214.962, 870.687 215.214, 864.893 217.313 M 1705.893 217.360 C 1697.917 220.193, 1692.021 224.119, 1685.968 230.627 C 1680.157 236.876, 1677.670 241.010, 1675.085 248.718 C 1673.058 254.764, 1673 256.721, 1673 319 C 1673 381.279, 1673.058 383.236, 1675.085 389.282 C 1677.722 397.146, 1680.178 401.173, 1686.331 407.722 C 1692.406 414.188, 1698.636 418.221, 1706.718 420.922 C 1712.721 422.928, 1714.891 423, 1769.218 422.996 C 1823.615 422.993, 1825.609 422.926, 1828.759 421.005 C 1838.418 415.116, 1838.418 400.884, 1828.759 394.995 C 1825.618 393.079, 1823.624 393.007, 1773.693 393.004 C 1737.751 393.001, 1720.476 392.645, 1717.284 391.841 C 1711.162 390.300, 1705.700 384.838, 1704.159 378.716 C 1702.587 372.474, 1702.538 265.234, 1704.104 259.500 C 1705.575 254.115, 1709.088 249.678, 1713.694 247.391 C 1717.217 245.640, 1721.005 245.463, 1764.696 245 L 1811.892 244.500 1815.465 241.035 C 1822.241 234.466, 1822.240 225.534, 1815.464 218.965 L 1811.890 215.500 1762.195 215.257 L 1712.500 215.014 1705.893 217.360 M 1929 273.573 L 1929 304.147 1979.250 303.774 C 2036.324 303.350, 2036.013 303.390, 2045.039 295.275 C 2051.397 289.558, 2054.004 282.843, 2053.990 272.212 C 2053.969 255.562, 2045.129 246.390, 2026.811 244.011 C 2022.790 243.489, 1999.138 243.048, 1974.250 243.031 L 1929 243 1929 273.573 M 1779.500 289.092 C 1777.300 290.227, 1766.734 296.183, 1756.020 302.328 C 1734.270 314.802, 1731.997 316.938, 1732.004 324.898 C 1732.008 330.401, 1734.629 335.169, 1739.241 338.064 C 1741.785 339.661, 1743.707 340.023, 1748 339.712 C 1752.893 339.358, 1755.981 337.890, 1775.985 326.407 C 1800.959 312.071, 1803.003 310.232, 1802.996 302.102 C 1802.987 290.093, 1790.722 283.302, 1779.500 289.092 M 1234.529 305.293 C 1210.590 319.264, 1208.996 320.801, 1209.007 329.898 C 1209.018 339.566, 1214.427 345.002, 1224 344.966 C 1229.210 344.947, 1230.606 344.300, 1250.471 332.707 C 1274.410 318.736, 1276.004 317.199, 1275.993 308.102 C 1275.982 298.434, 1270.573 292.998, 1261 293.034 C 1255.790 293.053, 1254.394 293.700, 1234.529 305.293 M 641.529 339.293 C 617.590 353.264, 615.996 354.801, 616.007 363.898 C 616.018 373.566, 621.427 379.002, 631 378.966 C 636.210 378.947, 637.606 378.300, 657.471 366.707 C 681.410 352.736, 683.004 351.199, 682.993 342.102 C 682.982 332.434, 677.573 326.998, 668 327.034 C 662.790 327.053, 661.394 327.700, 641.529 339.293" stroke="none" fill="#fffcfc" fill-rule="evenodd"/><path d="" stroke="none" fill="#fcfcfc" fill-rule="evenodd"/></svg>