<svg xmlns="http://www.w3.org/2000/svg" width="7337" height="2622" viewBox="0 0 7337 2622" version="1.1"><path d="M 5902.684 1551.544 C 5821.962 1562.542, 5757.741 1627.102, 5748.044 1707 C 5747.196 1713.989, 5746.979 1775.321, 5747.222 1939 L 5747.554 2161.500 5749.834 2171.500 C 5762.903 2228.803, 5798.188 2273.616, 5849.500 2298.078 C 5870.877 2308.269, 5890.241 2313.237, 5915.617 2315.042 C 5925.525 2315.747, 5992.170 2315.999, 6115 2315.796 C 6290.729 2315.506, 6299.761 2315.404, 6305 2313.660 C 6339.235 2302.257, 6354.783 2265.118, 6338.385 2233.913 C 6332.256 2222.250, 6321.141 2212.531, 6308.461 2207.748 L 6302.500 2205.500 6109 2204.963 C 5927.608 2204.460, 5915.134 2204.316, 5909.647 2202.655 C 5895.644 2198.417, 5884.691 2191.787, 5875.947 2182.255 C 5865.263 2170.607, 5859.745 2158.063, 5857.966 2141.377 C 5857.252 2134.691, 5857.011 2064.953, 5857.217 1925.500 C 5857.504 1731.845, 5857.628 1719.140, 5859.293 1713.500 C 5866.479 1689.149, 5882.556 1672, 5905.500 1664.215 L 5913.500 1661.500 6078.500 1661 L 6243.500 1660.500 6250.179 1657.900 C 6267.920 1650.993, 6280.927 1636.766, 6285.416 1619.356 C 6290.348 1600.228, 6284.871 1580.639, 6270.611 1566.400 C 6262.843 1558.643, 6252.935 1553.112, 6243.201 1551.097 C 6234.797 1549.357, 5915.657 1549.776, 5902.684 1551.544 M 1102 1554.044 C 1071.381 1557.819, 1039.660 1569.887, 1016.040 1586.747 C 1005.238 1594.458, 988.423 1610.208, 980.006 1620.500 C 968.426 1634.658, 956.487 1655.532, 950.550 1672 C 949.063 1676.125, 914.344 1792.450, 873.396 1930.500 C 832.449 2068.550, 797.759 2183.975, 796.306 2187 C 794.645 2190.460, 790.667 2195.509, 785.583 2200.611 C 779.128 2207.089, 775.778 2209.554, 768.946 2212.852 C 746.230 2223.819, 723.962 2223.806, 702.713 2212.814 C 691.457 2206.992, 680.027 2195.596, 674.316 2184.500 C 671.080 2178.213, 653.567 2122.545, 592.520 1924.500 C 549.796 1785.900, 513.522 1669.350, 511.911 1665.500 C 486.979 1605.941, 429.848 1566, 360.919 1559.939 C 325.636 1556.837, 286.812 1565.850, 254.919 1584.547 C 218.373 1605.973, 189.023 1641.695, 175.542 1681.156 C 173.599 1686.845, 133.457 1821.325, 86.339 1980 L 0.669 2268.500 0.591 2280 C 0.526 2289.543, 0.905 2292.638, 2.818 2298.190 C 13.149 2328.171, 45.515 2343.623, 75.733 2333.002 C 87.526 2328.858, 99.405 2318.466, 105.407 2307.045 C 108.028 2302.057, 130.411 2227.870, 194.973 2010.177 C 242.313 1850.557, 281.969 1717.615, 283.099 1714.749 C 288.754 1700.403, 301.684 1686.709, 316.462 1679.416 C 337.293 1669.136, 358.310 1669.488, 380.663 1680.491 C 391.170 1685.662, 399.780 1693.376, 404.759 1702.079 C 406.968 1705.939, 430.518 1780.959, 485.887 1960.509 C 528.795 2099.654, 565.089 2216.402, 566.540 2219.949 C 576.699 2244.787, 589.998 2264.163, 610.155 2283.500 C 623.864 2296.651, 636.385 2305.460, 653.500 2313.996 C 692.883 2333.638, 732.944 2338.714, 774.883 2329.375 C 834.719 2316.050, 882.715 2276.293, 903.301 2223 C 905.320 2217.775, 939.622 2103.250, 979.529 1968.500 C 1019.435 1833.750, 1053.446 1719.363, 1055.107 1714.307 C 1062.052 1693.166, 1078.433 1676.479, 1099.255 1669.330 C 1106.770 1666.751, 1108.739 1666.500, 1121.500 1666.500 C 1134.261 1666.500, 1136.230 1666.751, 1143.745 1669.330 C 1159.996 1674.909, 1175.196 1687.851, 1182.509 1702.336 C 1185.106 1707.479, 1211.080 1792.019, 1274.577 2002 C 1326.902 2175.033, 1364.317 2297.142, 1366.184 2300.969 C 1370.429 2309.668, 1381.343 2320.579, 1390.031 2324.808 C 1412.999 2335.988, 1437.943 2332.061, 1455.502 2314.502 C 1467.307 2302.698, 1472.579 2289.116, 1471.789 2272.545 C 1471.381 2263.973, 1466.643 2247.927, 1381.134 1965.500 C 1283.105 1641.725, 1288.178 1657.377, 1274.419 1636.227 C 1246.724 1593.657, 1202.956 1564.697, 1153 1555.889 C 1139.799 1553.562, 1113.599 1552.614, 1102 1554.044 M 2047.051 1554.078 C 1997.162 1559.703, 1953.155 1581.297, 1918.464 1617.175 C 1898.455 1637.869, 1887.673 1654.244, 1875.797 1681.976 C 1870.764 1693.729, 1669.840 2251.462, 1667.383 2260.500 C 1665.598 2267.068, 1665.650 2281.095, 1667.485 2287.992 C 1672.494 2306.815, 1687.398 2321.945, 1706.500 2327.598 C 1715.136 2330.154, 1728.568 2329.998, 1737.542 2327.236 C 1751.459 2322.953, 1764.133 2312.338, 1770.497 2299.634 C 1772.463 2295.710, 1819.741 2165.375, 1875.559 2010 C 1931.377 1854.625, 1979.032 1723.450, 1981.458 1718.500 C 1990.539 1699.972, 2006.364 1684.332, 2025.500 1674.972 C 2054.363 1660.854, 2084.609 1660.855, 2113.500 1674.976 C 2133.097 1684.554, 2148.612 1700.090, 2157.962 1719.500 C 2160.682 1725.145, 2207.070 1852.751, 2264.475 2012.500 C 2320.407 2168.150, 2367.538 2298.077, 2369.211 2301.226 C 2375.309 2312.705, 2388.307 2323.189, 2401.458 2327.236 C 2410.432 2329.998, 2423.864 2330.154, 2432.500 2327.598 C 2451.734 2321.906, 2466.475 2306.931, 2471.525 2287.955 C 2473.578 2280.237, 2473.401 2266.856, 2471.141 2258.978 C 2467.164 2245.117, 2267.493 1691.700, 2261.737 1678.583 C 2251.044 1654.220, 2239.238 1636.546, 2221.077 1617.718 C 2189.044 1584.508, 2150.245 1563.892, 2104.975 1556.028 C 2090.600 1553.531, 2060.800 1552.527, 2047.051 1554.078 M 4214.500 1554.028 C 4174.406 1558.549, 4134.695 1575.106, 4103.500 1600.306 C 4085.756 1614.641, 4065.595 1638.225, 4054.626 1657.480 C 4051.946 1662.185, 4047.150 1672.016, 4043.968 1679.326 C 4035.361 1699.103, 3834.150 2259.396, 3832.896 2267.077 C 3828.690 2292.846, 3844.645 2318.702, 3870.580 2328.147 C 3878.691 2331.100, 3895.978 2331.347, 3904 2328.623 C 3917.629 2323.996, 3928.966 2315.150, 3935.718 2303.874 C 3937.692 2300.579, 3978.446 2188.608, 4041.044 2014.500 C 4097.203 1858.300, 4144.518 1727.350, 4146.189 1723.500 C 4156.205 1700.420, 4178.299 1679.509, 4201.560 1671.092 C 4215.609 1666.008, 4224.413 1664.689, 4240.402 1665.269 C 4267.459 1666.251, 4288.622 1675.351, 4307.019 1693.913 C 4316.777 1703.759, 4323.262 1713.661, 4328.595 1726.854 C 4330.961 1732.709, 4377.932 1862.825, 4432.974 2016 C 4488.016 2169.175, 4534.460 2297.425, 4536.183 2301 C 4540.376 2309.702, 4551.114 2320.336, 4560.213 2324.797 C 4582.489 2335.720, 4607.917 2331.493, 4625.118 2314.009 C 4636.525 2302.414, 4641.612 2288.752, 4640.760 2272.001 L 4640.277 2262.500 4538.551 1979.500 C 4482.602 1823.850, 4434.141 1690.200, 4430.861 1682.500 C 4423.646 1665.567, 4417.038 1653.440, 4408.614 1641.675 C 4375.705 1595.711, 4327.862 1565.718, 4272 1556.029 C 4257.788 1553.564, 4227.850 1552.522, 4214.500 1554.028 M 6602.438 1557.035 C 6586.816 1561.989, 6571.917 1576.492, 6565.669 1592.828 L 6563.500 1598.500 6563.196 1941 C 6562.968 2197.638, 6563.182 2284.879, 6564.050 2289 C 6566.938 2302.719, 6579.198 2317.527, 6593.542 2324.620 L 6601.387 2328.500 6616.633 2328.839 C 6638.307 2329.320, 6645.549 2327.030, 6657.391 2315.953 C 6665.150 2308.695, 6669.560 2302.089, 6672.105 2293.909 C 6673.928 2288.054, 6674 2282.343, 6674 2143.911 L 6674 2000 6815.250 2000.032 L 6956.500 2000.065 7017.949 2128.282 C 7110.086 2320.531, 7101.892 2304.194, 7110.346 2312.485 C 7122.430 2324.334, 7133.923 2329, 7151.029 2329 C 7167.228 2329, 7178.732 2324.203, 7190.597 2312.500 C 7198.688 2304.519, 7204.292 2294.409, 7206.118 2284.500 C 7207.491 2277.041, 7206.735 2264.043, 7204.561 2257.749 C 7203.658 2255.136, 7174.864 2195.287, 7140.573 2124.751 L 7078.227 1996.504 7086.435 1995.319 C 7111.287 1991.731, 7142.282 1979.992, 7162.500 1966.511 C 7192.217 1946.696, 7212.863 1922.201, 7230.480 1885.857 C 7245.124 1855.644, 7251.465 1826.541, 7252.670 1784 C 7254.038 1735.709, 7246.497 1697.642, 7229.318 1666.116 C 7198.916 1610.326, 7148.691 1575.374, 7078.441 1561.119 C 7047.016 1554.743, 7057.750 1554.997, 6822.500 1555.057 C 6614.235 1555.111, 6608.338 1555.164, 6602.438 1557.035 M 2865.107 1560.070 C 2853.149 1561.424, 2839.011 1564.453, 2828 1568.020 C 2814.863 1572.275, 2790.386 1584.635, 2779.040 1592.741 C 2768.343 1600.384, 2751.765 1615.888, 2743.655 1625.832 C 2726.822 1646.474, 2714.206 1671.906, 2707.606 1698.500 C 2702.835 1717.722, 2702.999 1706.761, 2703.012 2004.628 C 2703.022 2245.184, 2703.223 2284.249, 2704.475 2288.955 C 2710.973 2313.371, 2733.757 2330.904, 2759.090 2330.983 C 2766.231 2331.005, 2778.670 2327.831, 2785.325 2324.289 C 2796.924 2318.115, 2807.698 2304.589, 2812.637 2290 C 2814.431 2284.702, 2814.517 2274.227, 2814.999 2005 L 2815.500 1725.500 2818.179 1718.165 C 2822.154 1707.284, 2826.578 1700.469, 2835.567 1691.380 C 2842.280 1684.592, 2845.219 1682.457, 2853.067 1678.665 C 2880.032 1665.639, 2909.762 1669.956, 2931.112 1690 C 2935.922 1694.515, 2970.468 1746.070, 3124.097 1978 C 3227.017 2133.375, 3312.844 2262.525, 3314.825 2265 C 3320.866 2272.550, 3336.047 2287.189, 3344.521 2293.638 C 3381.301 2321.625, 3427.945 2334.827, 3472.789 2329.942 C 3495.127 2327.509, 3512.901 2322.478, 3532.787 2312.959 C 3590.557 2285.307, 3628.906 2230.376, 3635.034 2166.500 C 3635.754 2158.998, 3635.996 2067.721, 3635.795 1879.500 L 3635.500 1603.500 3633.373 1597.952 C 3629.435 1587.679, 3626.752 1583.533, 3619.110 1575.914 C 3608.138 1564.976, 3594.372 1559.035, 3580 1559.035 C 3566.834 1559.035, 3552.472 1564.821, 3542.513 1574.137 C 3535.101 1581.071, 3530.724 1587.512, 3527.100 1596.821 L 3524.500 1603.500 3523.982 1883 C 3523.405 2194.574, 3524.135 2165.309, 3516.565 2180.500 C 3509.475 2194.727, 3499.089 2204.920, 3484.500 2211.969 C 3463.944 2221.900, 3439.861 2221.059, 3420.011 2209.716 C 3405.900 2201.653, 3415.199 2215.129, 3212.860 1909.500 L 3025.503 1626.500 3011.502 1612.463 C 2992.518 1593.432, 2975.911 1582.236, 2952.448 1572.651 C 2939.749 1567.463, 2926.439 1563.701, 2913 1561.502 C 2901.127 1559.560, 2876.202 1558.814, 2865.107 1560.070 M 5151.500 1560.032 C 5092.038 1564.127, 5041.698 1577.344, 4991.500 1602.042 C 4905.824 1644.195, 4841.192 1713.668, 4807.219 1800.127 C 4787.759 1849.650, 4780.002 1894.672, 4781.310 1950.488 C 4782.143 1985.999, 4785.312 2011.121, 4792.634 2040.257 C 4806.667 2096.095, 4836.627 2150.785, 4877.404 2195 C 4938.591 2261.345, 5028.489 2305.801, 5127 2318.426 C 5193.468 2326.945, 5274.854 2318.738, 5338 2297.150 C 5385.579 2280.884, 5424.630 2257.639, 5454.017 2228.091 C 5482.530 2199.421, 5498.029 2168.664, 5505.713 2125.500 C 5507.323 2116.451, 5507.493 2107.701, 5507.496 2033.500 C 5507.500 1956.143, 5507.395 1951.189, 5505.637 1946 C 5500.365 1930.432, 5487.222 1916.908, 5471.801 1911.182 C 5464.760 1908.568, 5453 1907.159, 5453 1908.929 C 5453 1909.646, 5452.252 1909.897, 5451.155 1909.549 C 5448.694 1908.768, 5436.354 1910.569, 5430.328 1912.589 C 5427.673 1913.479, 5391.761 1933.398, 5350.524 1956.854 C 5281.694 1996.005, 5275.005 2000.039, 5268.916 2006.074 C 5253.685 2021.170, 5248.200 2044.684, 5255.329 2064.324 C 5261.800 2082.154, 5273.868 2094, 5291.875 2100.202 C 5301.398 2103.481, 5316.652 2103.358, 5326.500 2099.922 C 5330.350 2098.578, 5348.700 2088.821, 5367.278 2078.239 C 5385.856 2067.658, 5401.316 2059, 5401.634 2059 C 5401.951 2059, 5402.001 2069.463, 5401.745 2082.250 C 5401.225 2108.205, 5400.547 2112.056, 5394.130 2125.500 C 5379.948 2155.209, 5345.318 2181.654, 5299.807 2197.526 C 5264.814 2209.730, 5229.154 2215.280, 5185.500 2215.315 C 5126.133 2215.364, 5082.796 2205.611, 5035 2181.447 C 5008.320 2167.959, 4987.836 2153.531, 4967.635 2134 C 4930.573 2098.168, 4906.011 2055.198, 4894.182 2005.500 C 4889.626 1986.355, 4887.991 1973.730, 4887.321 1952.500 C 4884.802 1872.717, 4913.045 1800.163, 4967.140 1747.458 C 4988.685 1726.466, 5007.751 1713.149, 5036.500 1699.011 C 5079.099 1678.062, 5116.643 1668.822, 5171.328 1665.828 C 5224.023 1662.944, 5272.657 1670.303, 5307.369 1686.414 C 5333.201 1698.403, 5356.597 1713.677, 5375.300 1730.761 C 5385.455 1740.037, 5393.260 1744.524, 5402.730 1746.531 C 5411.322 1748.351, 5416.727 1748.341, 5425.483 1746.486 C 5435.498 1744.365, 5442.294 1740.665, 5450.508 1732.862 C 5461.851 1722.087, 5467.020 1710.383, 5466.976 1695.568 C 5466.940 1683.190, 5461.820 1672.335, 5448.815 1657.063 C 5409.133 1610.464, 5318.262 1570.783, 5230 1561.510 C 5212.161 1559.636, 5169.038 1558.824, 5151.500 1560.032 M 6674 1777.447 L 6674 1890 6841.250 1889.962 C 6933.238 1889.941, 7015.475 1889.531, 7024 1889.051 C 7043.159 1887.971, 7055.485 1885.886, 7068.671 1881.495 C 7108.533 1868.221, 7132.475 1840.327, 7139.414 1799.074 C 7142.709 1779.489, 7141.097 1750.189, 7135.835 1734 C 7129.395 1714.188, 7113.968 1694.884, 7096.318 1684.552 C 7081.330 1675.778, 7068.556 1671.557, 7045.500 1667.757 C 7032.616 1665.634, 7030.895 1665.612, 6853.250 1665.255 L 6674 1664.895 6674 1777.447 M 6158.500 1845.039 C 6156.300 1845.490, 6152.524 1846.568, 6150.108 1847.435 C 6147.693 1848.302, 6108.093 1870.489, 6062.108 1896.740 C 5985.644 1940.391, 5977.935 1945.027, 5971.885 1950.997 C 5958.853 1963.855, 5953.152 1981.733, 5956.356 1999.692 C 5958.197 2010.013, 5962.679 2019.199, 5969.607 2026.855 C 5980.723 2039.138, 5994.569 2045.286, 6011 2045.232 C 6017.803 2045.210, 6022.371 2044.608, 6027.092 2043.110 C 6031.484 2041.715, 6060.845 2025.483, 6115.092 1994.458 C 6159.866 1968.850, 6198.908 1946.260, 6201.851 1944.258 C 6211.257 1937.859, 6218.929 1926.830, 6222.583 1914.457 C 6225.067 1906.044, 6224.852 1891.550, 6222.115 1882.928 C 6213.722 1856.484, 6185.287 1839.548, 6158.500 1845.039 M 2112.982 1848.037 C 2111.047 1848.496, 2107.447 1849.739, 2104.982 1850.797 C 2098.669 1853.508, 1960.496 1932.493, 1954.877 1936.602 C 1947.253 1942.179, 1938.982 1953.823, 1936.126 1963 C 1926.359 1994.391, 1944.927 2027.132, 1976.741 2034.614 C 1985.884 2036.765, 1999.391 2036.037, 2007.500 2032.958 C 2010.800 2031.705, 2046.337 2011.964, 2086.471 1989.090 C 2167.640 1942.827, 2167.682 1942.798, 2175.305 1928.257 C 2181.972 1915.538, 2183.541 1902.345, 2180.022 1888.585 C 2177.291 1877.907, 2173.716 1871.698, 2165.517 1863.389 C 2158.174 1855.948, 2150.833 1851.511, 2141.068 1848.612 C 2135.228 1846.879, 2119.236 1846.551, 2112.982 1848.037 M 4280.688 1848.574 C 4277.491 1849.349, 4272.766 1851.004, 4270.188 1852.253 C 4267.609 1853.502, 4233.567 1872.744, 4194.537 1895.012 C 4118.050 1938.652, 4115.844 1940.121, 4108.724 1952.130 C 4103.180 1961.480, 4100.865 1969.782, 4100.798 1980.550 C 4100.698 1996.675, 4106.534 2010.562, 4117.899 2021.242 C 4125.986 2028.841, 4132.385 2032.413, 4142.585 2035.022 C 4155.473 2038.318, 4169.119 2037.014, 4180.131 2031.434 C 4193.762 2024.526, 4325.978 1948.333, 4329.876 1945.138 C 4332.296 1943.155, 4336.469 1938.411, 4339.149 1934.594 C 4350.980 1917.747, 4352.393 1894.976, 4342.749 1876.581 C 4338.854 1869.151, 4327.415 1857.485, 4320.325 1853.711 C 4308.955 1847.659, 4293.002 1845.592, 4280.688 1848.574" stroke="none" fill="#fffcfc" fill-rule="evenodd"/><path d="" stroke="none" fill="#fcfcfc" fill-rule="evenodd"/></svg>