<?xml version="1.0" encoding="UTF-8" standalone="no"?>
<svg
   width="7252.2432"
   height="786.36658"
   viewBox="0 0 7252.2432 786.36658"
   version="1.1"
   id="svg2"
   xmlns="http://www.w3.org/2000/svg"
   xmlns:svg="http://www.w3.org/2000/svg">
  <defs
     id="defs2" />
  <path
     d="m 1101.4158,4.0588558 c -30.619,3.775 -62.34,15.8430002 -85.96,32.7030002 -10.802,7.711 -27.61704,23.461 -36.03404,33.753 -11.58,14.158 -23.519,35.032004 -29.456,51.500004 -1.487,4.125 -36.206,120.45 -77.154,258.5 -40.947,138.05 -75.637,253.475 -77.09,256.5 -1.661,3.46 -5.639,8.509 -10.723,13.611 -6.455,6.478 -9.805,8.943 -16.637,12.241 -22.716,10.967 -44.984,10.954 -66.233,-0.038 -11.256,-5.822 -22.686,-17.218 -28.397,-28.314 -3.236,-6.287 -20.749,-61.955 -81.796,-260 -42.724,-138.6 -78.998,-255.15 -80.609,-259 -24.932,-59.559004 -82.063,-99.500004 -150.992,-105.5610042 -35.283,-3.102 -74.107,5.9110002 -106,24.6080002 -36.546,21.426 -65.896,57.148 -79.377,96.609004 -1.943,5.689 -42.085,140.169 -89.203002,298.844 l -85.66999964,288.5 -0.078,11.5 c -0.065,9.543 0.314,12.638 2.22700004,18.19 10.3309996,29.981 42.6969996,45.433 72.9149996,34.812 11.793,-4.144 23.672,-14.536 29.674002,-25.957 2.621,-4.988 25.004,-79.175 89.566,-296.868 47.34,-159.62 86.996,-292.562 88.126,-295.428 5.655,-14.346 18.585,-28.04 33.363,-35.333 20.831,-10.28 41.848,-9.928 64.201,1.075 10.507,5.171 19.117,12.885 24.096,21.588 2.209,3.86 25.759,78.88 81.128,258.43 42.908,139.145 79.202,255.893 80.653,259.44 10.159,24.838 23.458,44.214 43.615,63.551 13.709,13.151 26.23,21.96 43.345,30.496 39.383,19.642 79.444,24.718 121.383,15.379 59.836,-13.325 107.832,-53.082 128.418,-106.375 2.019,-5.225 36.321,-119.75 76.228,-254.5 39.90604,-134.75 73.91704,-249.137 75.57804,-254.193 6.945,-21.141 23.326,-37.828 44.148,-44.977 7.515,-2.579 9.484,-2.83 22.245,-2.83 12.761,0 14.73,0.251 22.245,2.83 16.251,5.579 31.451,18.521 38.764,33.006 2.597,5.143 28.571,89.683 92.068,299.664 52.325,173.033 89.74,295.142 91.607,298.969 4.245,8.699 15.159,19.61 23.847,23.839 22.968,11.18 47.912,7.253 65.471,-10.306 11.805,-11.804 17.077,-25.386 16.287,-41.957 -0.408,-8.572 -5.146,-24.618 -90.655,-307.045 -98.029,-323.775004 -92.956,-308.123 -106.715,-329.273004 -27.695,-42.57 -71.463,-71.53 -121.419,-80.3380002 -13.201,-2.327 -39.401,-3.275 -51,-1.845 m 945.051,0.034 c -49.889,5.625 -93.896,27.2190002 -128.587,63.0970002 -20.009,20.694 -30.791,37.069004 -42.667,64.801004 -5.033,11.753 -205.957,569.486 -208.414,578.524 -1.785,6.568 -1.733,20.595 0.102,27.492 5.009,18.823 19.913,33.953 39.015,39.606 8.636,2.556 22.068,2.4 31.042,-0.362 13.917,-4.283 26.591,-14.898 32.955,-27.602 1.966,-3.924 49.244,-134.259 105.062,-289.634 55.818,-155.375 103.473,-286.55 105.899,-291.5 9.081,-18.528 24.906,-34.168 44.042,-43.528 28.863,-14.118 59.109,-14.117 88,0 19.597,9.578 35.112,25.114 44.462,44.524 2.72,5.645 49.108,133.251 106.513,293 55.932,155.65 103.063,285.577 104.736,288.726 6.098,11.479 19.096,21.963 32.247,26.01 8.974,2.762 22.406,2.918 31.042,0.362 19.234,-5.692 33.975,-20.667 39.025,-39.643 2.053,-7.718 1.876,-21.099 -0.384,-28.977 -3.977,-13.861 -203.648,-567.278 -209.404,-580.395 -10.693,-24.363 -22.499,-42.037004 -40.66,-60.865004 -32.033,-33.21 -70.832,-53.826 -116.102,-61.6900002 -14.375,-2.497 -44.175,-3.501 -57.924,-1.95 m 818.056,5.9920002 c -11.958,1.354 -26.096,4.383 -37.107,7.95 -13.137,4.255 -37.614,16.615 -48.96,24.721 -10.697,7.643 -27.275,23.147 -35.385,33.091 -16.833,20.642 -29.449,46.074004 -36.049,72.668004 -4.771,19.222 -4.607,8.261 -4.594,306.128 0.01,240.556 0.211,279.621 1.463,284.327 6.498,24.416 29.282,41.949 54.615,42.028 7.141,0.022 19.58,-3.152 26.235,-6.694 11.599,-6.174 22.373,-19.7 27.312,-34.289 1.794,-5.298 1.88,-15.773 2.362,-285 l 0.501,-279.5 2.679,-7.335 c 3.975,-10.881 8.399,-17.696 17.388,-26.785 6.713,-6.788 9.652,-8.923 17.5,-12.715 26.965,-13.026 56.695,-8.709 78.045,11.335 4.81,4.515 39.356,56.07 192.985,288 102.92,155.375 188.747,284.525 190.728,287 6.041,7.55 21.222,22.189 29.696,28.638 36.78,27.987 83.424,41.189 128.268,36.304 22.338,-2.433 40.112,-7.464 59.998,-16.983 57.77,-27.652 96.119,-82.583 102.247,-146.459 0.72,-7.502 0.962,-98.779 0.761,-287 l -0.295,-276.000004 -2.127,-5.548 c -3.938,-10.273 -6.621,-14.419 -14.263,-22.038 -10.972,-10.938 -24.738,-16.8790002 -39.11,-16.8790002 -13.166,0 -27.528,5.7860002 -37.487,15.1020002 -7.412,6.934 -11.789,13.375 -15.413,22.684 l -2.6,6.679 -0.518,279.500004 c -0.577,311.574 0.153,282.309 -7.417,297.5 -7.09,14.227 -17.476,24.42 -32.065,31.469 -20.556,9.931 -44.639,9.09 -64.489,-2.253 -14.111,-8.063 -4.812,5.413 -207.151,-300.216 l -187.357,-283.000004 -14.001,-14.037 c -18.984,-19.031 -35.591,-30.227 -59.054,-39.812 -12.699,-5.188 -26.009,-8.95 -39.448,-11.149 -11.873,-1.9420002 -36.798,-2.6880002 -47.893,-1.432 m -752.125,287.967004 c -1.935,0.459 -5.535,1.702 -8,2.76 -6.313,2.711 -144.486,81.696 -150.105,85.805 -7.624,5.577 -15.895,17.221 -18.751,26.398 -9.767,31.391 8.801,64.132 40.615,71.614 9.143,2.151 22.65,1.423 30.759,-1.656 3.3,-1.253 38.837,-20.994 78.971,-43.868 81.169,-46.263 81.211,-46.292 88.834,-60.833 6.667,-12.719 8.236,-25.912 4.717,-39.672 -2.731,-10.678 -6.306,-16.887 -14.505,-25.196 -7.343,-7.441 -14.684,-11.878 -24.449,-14.777 -5.84,-1.733 -21.832,-2.061 -28.086,-0.575"
     stroke="none"
     fill="#1c1c1c"
     fill-rule="evenodd"
     id="path1" />
  <path
     d="m 5902.0998,1.5588558 c -80.722,10.9980002 -144.943,75.5580002 -154.64,155.4560042 -0.848,6.989 -1.065,68.321 -0.822,232 l 0.332,222.5 2.28,10 c 13.069,57.303 48.354,102.116 99.666,126.578 21.377,10.191 40.741,15.159 66.117,16.964 9.908,0.705 76.553,0.957 199.383,0.754 175.729,-0.29 184.761,-0.392 190,-2.136 34.235,-11.403 49.783,-48.542 33.385,-79.747 -6.129,-11.663 -17.244,-21.382 -29.924,-26.165 l -5.961,-2.248 -193.5,-0.537 c -181.392,-0.503 -193.866,-0.647 -199.353,-2.308 -14.003,-4.238 -24.956,-10.868 -33.7,-20.4 -10.684,-11.648 -16.202,-24.192 -17.981,-40.878 -0.714,-6.686 -0.955,-76.424 -0.749,-215.877 0.287,-193.655 0.411,-206.36 2.076,-212 7.186,-24.351 23.263,-41.5 46.207,-49.285 l 8,-2.715 165,-0.5 165,-0.5 6.679,-2.6 c 17.741,-6.907 30.748,-21.134004 35.237,-38.544004 4.932,-19.128 -0.545,-38.717 -14.805,-52.956 -7.768,-7.7570002 -17.676,-13.2880002 -27.41,-15.3030002 -8.404,-1.73999995 -327.544,-1.32099995 -340.517,0.447 m -1688.184,2.484 c -40.094,4.521 -79.805,21.0780002 -111,46.2780002 -17.744,14.335 -37.905,37.919 -48.874,57.174004 -2.68,4.705 -7.476,14.536 -10.658,21.846 -8.607,19.777 -209.818,580.07 -211.072,587.751 -4.206,25.769 11.749,51.625 37.684,61.07 8.111,2.953 25.398,3.2 33.42,0.476 13.629,-4.627 24.966,-13.473 31.718,-24.749 1.974,-3.295 42.728,-115.266 105.326,-289.374 56.159,-156.2 103.474,-287.15 105.145,-291 10.016,-23.08 32.11,-43.991 55.371,-52.408 14.049,-5.084 22.853,-6.403 38.842,-5.823 27.057,0.982 48.22,10.082 66.617,28.644 9.758,9.846 16.243,19.748 21.576,32.941 2.366,5.855 49.337,135.971 104.379,289.146 55.042,153.175 101.486,281.425 103.209,285 4.193,8.702 14.931,19.336 24.03,23.797 22.276,10.923 47.704,6.696 64.905,-10.788 11.407,-11.595 16.494,-25.257 15.642,-42.008 l -0.483,-9.501 -101.726,-283 c -55.949,-155.65 -104.41,-289.3 -107.69,-297 -7.215,-16.933 -13.823,-29.06 -22.247,-40.825004 -32.909,-45.964 -80.752,-75.957 -136.614,-85.6460002 -14.212,-2.465 -44.15,-3.507 -57.5,-2.001 m 2387.938,3.007 c -15.622,4.9540002 -30.521,19.4570002 -36.769,35.7930002 l -2.169,5.672 -0.304,342.500004 c -0.228,256.638 -0.014,343.879 0.854,348 2.888,13.719 15.148,28.527 29.492,35.62 l 7.845,3.88 15.246,0.339 c 21.674,0.481 28.916,-1.809 40.758,-12.886 7.759,-7.258 12.169,-13.864 14.714,-22.044 1.823,-5.855 1.895,-11.566 1.895,-149.998 v -143.911 l 141.25,0.032 141.25,0.033 61.449,128.217 c 92.137,192.249 83.943,175.912 92.397,184.203 12.084,11.849 23.577,16.515 40.683,16.515 16.199,0 27.703,-4.797 39.568,-16.5 8.091,-7.981 13.695,-18.091 15.521,-28 1.373,-7.459 0.617,-20.457 -1.557,-26.751 -0.903,-2.613 -29.697,-62.462 -63.988,-132.998 l -62.346,-128.247 8.208,-1.185 c 24.852,-3.588 55.847,-15.327 76.065,-28.808 29.717,-19.815 50.363,-44.31 67.98,-80.654 14.644,-30.213 20.985,-59.316 22.19,-101.857 1.368,-48.291 -6.173,-86.358 -23.352,-117.884 -30.402,-55.790004 -80.627,-90.742004 -150.877,-104.997004 -31.425,-6.3760002 -20.691,-6.1220002 -255.941,-6.0620002 -208.265,0.054 -214.162,0.107 -220.062,1.978 m -1450.938,2.9970002 c -59.462,4.095 -109.802,17.312 -160,42.01 -85.676,42.153 -150.308,111.626004 -184.281,198.085004 -19.46,49.523 -27.217,94.545 -25.909,150.361 0.833,35.511 4.002,60.633 11.324,89.769 14.033,55.838 43.993,110.528 84.77,154.743 61.187,66.345 151.085,110.801 249.596,123.426 66.468,8.519 147.854,0.312 211,-21.276 47.579,-16.266 86.63,-39.511 116.017,-69.059 28.513,-28.67 44.012,-59.427 51.696,-102.591 1.61,-9.049 1.78,-17.799 1.783,-92 0,-77.357 -0.101,-82.311 -1.859,-87.5 -5.272,-15.568 -18.415,-29.092 -33.836,-34.818 -7.041,-2.614 -18.801,-4.023 -18.801,-2.253 0,0.717 -0.748,0.968 -1.845,0.62 -2.461,-0.781 -14.801,1.02 -20.827,3.04 -2.655,0.89 -38.567,20.809 -79.804,44.265 -68.83,39.151 -75.519,43.185 -81.608,49.22 -15.231,15.096 -20.716,38.61 -13.587,58.25 6.471,17.83 18.539,29.676 36.546,35.878 9.523,3.279 24.777,3.156 34.625,-0.28 3.85,-1.344 22.2,-11.101 40.778,-21.683 18.578,-10.581 34.038,-19.239 34.356,-19.239 0.317,0 0.367,10.463 0.111,23.25 -0.52,25.955 -1.198,29.806 -7.615,43.25 -14.182,29.709 -48.812,56.154 -94.323,72.026 -34.993,12.204 -70.653,17.754 -114.307,17.789 -59.367,0.049 -102.704,-9.704 -150.5,-33.868 -26.68,-13.488 -47.164,-27.916 -67.365,-47.447 -37.062,-35.832 -61.624,-78.802 -73.453,-128.5 -4.556,-19.145 -6.191,-31.77 -6.861,-53 -2.519,-79.783 25.724,-152.337 79.819,-205.042 21.545,-20.992 40.611,-34.309 69.36,-48.447 42.599,-20.949 80.143,-30.189 134.828,-33.183 52.695,-2.884 101.329,4.475 136.041,20.586 25.832,11.989 49.228,27.263 67.931,44.347 10.155,9.276 17.96,13.763 27.43,15.77 8.592,1.82 13.997,1.81 22.753,-0.045 10.015,-2.121 16.811,-5.821 25.025,-13.624 11.343,-10.775 16.512,-22.479 16.468,-37.294 -0.036,-12.378 -5.156,-23.233 -18.161,-38.505 -39.682,-46.599004 -130.553,-86.280004 -218.815,-95.553004 -17.839,-1.8740002 -60.962,-2.6860002 -78.5,-1.478 m 1522.5,217.415004 v 112.553 l 167.25,-0.038 c 91.988,-0.021 174.225,-0.431 182.75,-0.911 19.159,-1.08 31.485,-3.165 44.671,-7.556 39.862,-13.274 63.804,-41.168 70.743,-82.421 3.295,-19.585 1.683,-48.885 -3.579,-65.074 -6.44,-19.812 -21.867,-39.116 -39.517,-49.448 -14.988,-8.774 -27.762,-12.995 -50.818,-16.795 -12.884,-2.123 -14.605,-2.145 -192.25,-2.502 l -179.25,-0.36 v 112.552 m -515.5,67.592 c -2.2,0.451 -5.976,1.529 -8.392,2.396 -2.415,0.867 -42.015,23.054 -88,49.305 -76.464,43.651 -84.173,48.287 -90.223,54.257 -13.032,12.858 -18.733,30.736 -15.529,48.695 1.841,10.321 6.323,19.507 13.251,27.163 11.116,12.283 24.962,18.431 41.393,18.377 6.803,-0.022 11.371,-0.624 16.092,-2.122 4.392,-1.395 33.753,-17.627 88,-48.652 44.774,-25.608 83.816,-48.198 86.759,-50.2 9.406,-6.399 17.078,-17.428 20.732,-29.801 2.484,-8.413 2.269,-22.907 -0.468,-31.529 -8.393,-26.444 -36.828,-43.38 -63.615,-37.889 m -1877.812,3.535 c -3.197,0.775 -7.922,2.43 -10.5,3.679 -2.579,1.249 -36.621,20.491 -75.651,42.759 -76.487,43.64 -78.693,45.109 -85.813,57.118 -5.544,9.35 -7.859,17.652 -7.926,28.42 -0.1,16.125 5.736,30.012 17.101,40.692 8.087,7.599 14.486,11.171 24.686,13.78 12.888,3.296 26.534,1.992 37.546,-3.588 13.631,-6.908 145.847,-83.101 149.745,-86.296 2.42,-1.983 6.593,-6.727 9.273,-10.544 11.831,-16.847 13.244,-39.618 3.6,-58.013 -3.895,-7.43 -15.334,-19.096 -22.424,-22.87 -11.37,-6.052 -27.323,-8.119 -39.637,-5.137"
     stroke="none"
     fill="#fcfcfc"
     fill-rule="evenodd"
     id="path2" />
</svg>
