<svg xmlns="http://www.w3.org/2000/svg" width="889" height="639" viewBox="0 0 889 639" version="1.1"><path d="M 152.698 210.507 C 128.406 214.443, 110.844 221.675, 93.086 235.056 C 59.086 260.676, 46.210 308.725, 61.409 353.262 C 73.999 390.155, 107.951 415.714, 153.317 422.450 C 166.903 424.467, 195.202 424.484, 208.500 422.484 C 237.754 418.082, 258.988 408.012, 277 390 C 288.547 378.453, 293.529 370.958, 299.292 356.464 C 315.124 316.645, 305.315 267.801, 276.045 240.702 C 261.223 226.979, 240.174 216.682, 217 211.816 C 204.283 209.145, 165.919 208.364, 152.698 210.507 M 642 210.594 C 637.471 212.556, 633.307 216.547, 630.894 221.239 C 629.030 224.863, 628.979 227.946, 629.235 321.396 L 629.500 417.815 632.595 421.657 C 637.447 427.681, 642.299 429.964, 650.290 429.984 C 660.445 430.008, 666.997 426.039, 670.452 417.768 C 671.748 414.668, 672 408.438, 672 379.532 L 672 345 718.340 345 C 761.395 345, 765.241 344.858, 772.590 342.998 C 784.368 340.017, 792.426 335.558, 800.601 327.500 C 813.387 314.895, 819.195 299.125, 819.198 277 C 819.204 242.368, 802.377 218.541, 772.590 211.002 C 765.106 209.108, 761.473 209.002, 705.090 209.039 C 654.107 209.073, 644.994 209.297, 642 210.594 M 367 214.084 C 361.432 216.608, 358.367 219.405, 355.903 224.210 C 352.122 231.583, 353.940 240.106, 360.528 245.891 C 367.378 251.905, 368.006 252, 400.950 252 L 430.965 252 431.233 332.427 C 431.498 412.287, 431.515 412.874, 433.594 415.677 C 434.746 417.230, 437.597 419.850, 439.930 421.500 C 443.943 424.338, 444.699 424.500, 453.915 424.500 C 462.999 424.500, 463.983 424.297, 468.488 421.500 C 471.494 419.633, 474.109 416.989, 475.409 414.500 C 477.472 410.554, 477.504 409.433, 477.773 331.250 L 478.047 252 507.773 251.990 C 536.914 251.981, 537.599 251.934, 542.500 249.623 C 545.250 248.326, 548.491 246.186, 549.702 244.869 C 552.513 241.811, 555.006 235.862, 554.978 232.282 C 554.925 225.551, 547.968 216.556, 540.355 213.375 C 537.651 212.245, 522.294 212.004, 454.282 212.022 C 373.119 212.043, 371.412 212.084, 367 214.084 M 168.862 249.027 C 141.217 251.555, 118.443 265.192, 108.789 285 C 92.162 319.111, 103.838 357.835, 135.714 374.298 C 146.845 380.047, 156.535 382.762, 170.250 383.973 C 223.600 388.683, 260.473 360.853, 260.310 316 C 260.228 293.491, 251.378 275.638, 234.194 263.316 C 218.343 251.950, 194.333 246.699, 168.862 249.027 M 672 277 L 672 303.131 716.250 302.815 C 760.350 302.501, 760.516 302.492, 765.264 300.154 C 768.693 298.465, 770.795 296.503, 772.764 293.154 C 775.317 288.811, 775.500 287.730, 775.500 277 C 775.500 266.270, 775.317 265.189, 772.764 260.846 C 770.795 257.497, 768.693 255.535, 765.264 253.846 C 760.516 251.508, 760.350 251.499, 716.250 251.185 L 672 250.869 672 277" stroke="none" fill="#fffcfc" fill-rule="evenodd"/><path d="" stroke="none" fill="#fcfcfc" fill-rule="evenodd"/></svg>