<svg xmlns="http://www.w3.org/2000/svg" width="2644" height="1210" viewBox="0 0 2644 1210" version="1.1"><path d="M 426 113.121 C 283.165 122.653, 153.108 189.116, 74.803 292.593 C 32.619 348.336, 7.747 410.802, 1.036 477.856 C -0.300 491.205, -0.300 529.795, 1.036 543.144 C 8.566 618.374, 39.513 688.933, 91.091 748.461 C 101.729 760.739, 127.303 785.908, 139.500 796.103 C 197.167 844.306, 268.311 879.001, 344.349 896.002 C 437.262 916.776, 535.708 912.216, 624 883.049 C 648.265 875.033, 662.220 869.360, 685.804 857.924 C 734.707 834.210, 772.784 807.341, 809.592 770.574 C 871.801 708.434, 909.096 634.623, 919.528 553 C 921.742 535.675, 922.522 501.650, 921.097 484.500 C 917.060 435.902, 905.488 394.941, 883.523 351.500 C 863.895 312.680, 842.168 282.991, 809.575 250.454 C 786.343 227.262, 766.609 211.109, 740 193.502 C 651.407 134.884, 537.362 105.690, 426 113.121 M 1955 116.266 C 1945.250 119.617, 1939.310 123.492, 1930.854 132.017 C 1922.532 140.407, 1917.145 149.904, 1915.097 159.799 C 1914.313 163.585, 1914 264.542, 1914 513.339 C 1914 822.983, 1914.170 862.232, 1915.533 867.465 C 1919.863 884.089, 1935.330 900.005, 1952.106 905.101 C 1958.081 906.916, 1960.898 907.130, 1974.226 906.788 C 1987.142 906.456, 1990.386 906.045, 1995.243 904.128 C 2007.314 899.364, 2019.914 886.708, 2025.188 874.051 L 2027.500 868.500 2027.763 725.273 L 2028.027 582.046 2213.763 581.744 C 2420.730 581.408, 2404.161 581.959, 2435 574.383 C 2479.663 563.410, 2515.476 541.994, 2541.828 510.500 C 2562.702 485.553, 2577.164 456.423, 2585.982 421.565 C 2597.640 375.480, 2597.640 320.520, 2585.982 274.435 C 2565.522 193.552, 2513.507 140.905, 2435 121.617 C 2403.915 113.980, 2424.769 114.580, 2180.500 114.291 L 1961.500 114.031 1955 116.266 M 1047 118.276 C 1037.416 121.555, 1031.332 125.473, 1023.500 133.408 C 1011.941 145.119, 1006.990 156.996, 1007.012 172.960 C 1007.034 188.838, 1011.522 199.518, 1023 211.007 C 1027.907 215.919, 1032.750 219.645, 1037.008 221.784 C 1049.962 228.292, 1043.282 227.975, 1167.750 227.988 L 1281 228 1281 546.451 C 1281 776.741, 1281.309 866.369, 1282.115 870.201 C 1285.590 886.722, 1299.743 901.752, 1316.783 907.015 C 1326.002 909.862, 1348.998 909.862, 1358.217 907.015 C 1370.469 903.230, 1384.735 891.374, 1389.211 881.256 C 1394.241 869.885, 1393.975 888.442, 1393.988 547.250 L 1394 228 1507.750 227.988 C 1632.584 227.975, 1625.877 228.289, 1638.947 221.854 C 1646.757 218.010, 1659.123 206.072, 1663.217 198.425 C 1667.112 191.151, 1669 182.848, 1669 173 C 1669 156.665, 1664.066 145.046, 1652.010 132.990 C 1644.113 125.093, 1636.412 120.340, 1627.068 117.595 C 1622.151 116.151, 1594.734 116.002, 1337.568 116.026 L 1053.500 116.052 1047 118.276 M 434 227.009 C 322.059 234.776, 222.834 284.829, 164.388 363.012 C 139.575 396.205, 123.775 432.690, 116.757 473 C 113.774 490.138, 113.550 528.817, 116.338 545.500 C 122.456 582.110, 135.347 614.765, 155.837 645.558 C 210.105 727.112, 305.281 780.304, 419 792.633 C 440.102 794.920, 481.973 794.919, 502.841 792.630 C 580.981 784.059, 647.664 757.618, 704.330 712.736 C 716.542 703.063, 741 678.775, 750.386 667 C 780.447 629.287, 798.586 588.580, 805.642 543 C 808.095 527.151, 808.106 493.973, 805.663 478 C 798.903 433.803, 781.485 394.214, 751.988 356 C 742.406 343.587, 715.295 316.666, 702 306.363 C 645.444 262.535, 579.004 236.414, 504 228.522 C 485.958 226.623, 450.577 225.858, 434 227.009 M 2028 347.991 L 2028 470.092 2205.250 469.747 C 2365.770 469.434, 2383.355 469.243, 2391.558 467.728 C 2410.352 464.255, 2423.595 458.646, 2437.528 448.257 C 2468.027 425.516, 2482.380 389.078, 2480.718 338.612 C 2479.853 312.362, 2475.806 292.528, 2468.249 277.500 C 2454.334 249.830, 2432.074 234.776, 2395.500 228.300 C 2387.548 226.892, 2365.624 226.658, 2207.250 226.298 L 2028 225.890 2028 347.991" stroke="none" fill="#fffcfc" fill-rule="evenodd"/><path d="" stroke="none" fill="#fcfcfc" fill-rule="evenodd"/></svg>